<mxfile host="app.diagrams.net" agent="Mozilla/5.0 (Windows NT 10.0; Win64; x64) AppleWebKit/537.36 (KHTML, like Gecko) Chrome/133.0.0.0 Safari/537.36 OPR/118.0.0.0" version="27.0.6" pages="2">
  <diagram id="6Sm_0GnPmlF0oke3MPKw" name="diagramme_classe">
    <mxGraphModel dx="3669" dy="907" grid="1" gridSize="10" guides="1" tooltips="1" connect="1" arrows="1" fold="1" page="1" pageScale="1" pageWidth="1169" pageHeight="827" math="0" shadow="0">
      <root>
        <mxCell id="0" />
        <mxCell id="1" parent="0" />
        <mxCell id="fSSnkKhONHnSPeiWQdq9-19" value="Patient" style="swimlane;fontStyle=1;align=center;verticalAlign=top;childLayout=stackLayout;horizontal=1;startSize=26;horizontalStack=0;resizeParent=1;resizeLast=0;collapsible=1;marginBottom=0;rounded=0;shadow=0;strokeWidth=1;" parent="1" vertex="1">
          <mxGeometry x="80" y="295" width="240" height="414" as="geometry">
            <mxRectangle x="550" y="140" width="160" height="26" as="alternateBounds" />
          </mxGeometry>
        </mxCell>
        <mxCell id="fSSnkKhONHnSPeiWQdq9-20" value="id_patient: int" style="text;align=left;verticalAlign=top;spacingLeft=4;spacingRight=4;overflow=hidden;rotatable=0;points=[[0,0.5],[1,0.5]];portConstraint=eastwest;fontStyle=4" parent="fSSnkKhONHnSPeiWQdq9-19" vertex="1">
          <mxGeometry y="26" width="240" height="26" as="geometry" />
        </mxCell>
        <mxCell id="fSSnkKhONHnSPeiWQdq9-21" value="NomComplet: String" style="text;strokeColor=none;fillColor=none;align=left;verticalAlign=top;spacingLeft=4;spacingRight=4;overflow=hidden;rotatable=0;points=[[0,0.5],[1,0.5]];portConstraint=eastwest;whiteSpace=wrap;html=1;" parent="fSSnkKhONHnSPeiWQdq9-19" vertex="1">
          <mxGeometry y="52" width="240" height="26" as="geometry" />
        </mxCell>
        <mxCell id="fSSnkKhONHnSPeiWQdq9-23" value="date_naissance: Date" style="text;strokeColor=none;fillColor=none;align=left;verticalAlign=top;spacingLeft=4;spacingRight=4;overflow=hidden;rotatable=0;points=[[0,0.5],[1,0.5]];portConstraint=eastwest;whiteSpace=wrap;html=1;" parent="fSSnkKhONHnSPeiWQdq9-19" vertex="1">
          <mxGeometry y="78" width="240" height="26" as="geometry" />
        </mxCell>
        <mxCell id="LIPTSqcopBgNWa-e8DmY-1" value="sexe: enum" style="text;strokeColor=none;fillColor=none;align=left;verticalAlign=top;spacingLeft=4;spacingRight=4;overflow=hidden;rotatable=0;points=[[0,0.5],[1,0.5]];portConstraint=eastwest;whiteSpace=wrap;html=1;" parent="fSSnkKhONHnSPeiWQdq9-19" vertex="1">
          <mxGeometry y="104" width="240" height="26" as="geometry" />
        </mxCell>
        <mxCell id="Liz70xh0E30Ar9lDT0JQ-2" value="langue: String" style="text;align=left;verticalAlign=top;spacingLeft=4;spacingRight=4;overflow=hidden;rotatable=0;points=[[0,0.5],[1,0.5]];portConstraint=eastwest;rounded=0;shadow=0;html=0;" parent="fSSnkKhONHnSPeiWQdq9-19" vertex="1">
          <mxGeometry y="130" width="240" height="26" as="geometry" />
        </mxCell>
        <mxCell id="fSSnkKhONHnSPeiWQdq9-28" value="hospitalise: boolean" style="text;align=left;verticalAlign=top;spacingLeft=4;spacingRight=4;overflow=hidden;rotatable=0;points=[[0,0.5],[1,0.5]];portConstraint=eastwest;rounded=0;shadow=0;html=0;" parent="fSSnkKhONHnSPeiWQdq9-19" vertex="1">
          <mxGeometry y="156" width="240" height="26" as="geometry" />
        </mxCell>
        <mxCell id="fSSnkKhONHnSPeiWQdq9-31" value="Personnel" style="swimlane;fontStyle=1;align=center;verticalAlign=top;childLayout=stackLayout;horizontal=1;startSize=26;horizontalStack=0;resizeParent=1;resizeLast=0;collapsible=1;marginBottom=0;rounded=0;shadow=0;strokeWidth=1;" parent="1" vertex="1">
          <mxGeometry x="1000" y="599" width="194.29" height="331" as="geometry">
            <mxRectangle x="550" y="140" width="160" height="26" as="alternateBounds" />
          </mxGeometry>
        </mxCell>
        <mxCell id="fSSnkKhONHnSPeiWQdq9-40" value="id_personnel: int" style="text;align=left;verticalAlign=top;spacingLeft=4;spacingRight=4;overflow=hidden;rotatable=0;points=[[0,0.5],[1,0.5]];portConstraint=eastwest;rounded=0;shadow=0;html=0;fontStyle=4" parent="fSSnkKhONHnSPeiWQdq9-31" vertex="1">
          <mxGeometry y="26" width="194.29" height="18" as="geometry" />
        </mxCell>
        <mxCell id="WtJijDYXJvBTnk_VOGE1-14" value="nom: String" style="text;align=left;verticalAlign=top;spacingLeft=4;spacingRight=4;overflow=hidden;rotatable=0;points=[[0,0.5],[1,0.5]];portConstraint=eastwest;rounded=0;shadow=0;html=0;" parent="fSSnkKhONHnSPeiWQdq9-31" vertex="1">
          <mxGeometry y="44" width="194.29" height="20" as="geometry" />
        </mxCell>
        <mxCell id="WtJijDYXJvBTnk_VOGE1-13" value="prenom: String" style="text;align=left;verticalAlign=top;spacingLeft=4;spacingRight=4;overflow=hidden;rotatable=0;points=[[0,0.5],[1,0.5]];portConstraint=eastwest;rounded=0;shadow=0;html=0;" parent="fSSnkKhONHnSPeiWQdq9-31" vertex="1">
          <mxGeometry y="64" width="194.29" height="26" as="geometry" />
        </mxCell>
        <mxCell id="WtJijDYXJvBTnk_VOGE1-12" value="date_embauche: Date" style="text;align=left;verticalAlign=top;spacingLeft=4;spacingRight=4;overflow=hidden;rotatable=0;points=[[0,0.5],[1,0.5]];portConstraint=eastwest;rounded=0;shadow=0;html=0;" parent="fSSnkKhONHnSPeiWQdq9-31" vertex="1">
          <mxGeometry y="90" width="194.29" height="26" as="geometry" />
        </mxCell>
        <mxCell id="WtJijDYXJvBTnk_VOGE1-11" value="salaire: float" style="text;align=left;verticalAlign=top;spacingLeft=4;spacingRight=4;overflow=hidden;rotatable=0;points=[[0,0.5],[1,0.5]];portConstraint=eastwest;rounded=0;shadow=0;html=0;" parent="fSSnkKhONHnSPeiWQdq9-31" vertex="1">
          <mxGeometry y="116" width="194.29" height="26" as="geometry" />
        </mxCell>
        <mxCell id="WtJijDYXJvBTnk_VOGE1-10" value="affectation_specialite: String" style="text;align=left;verticalAlign=top;spacingLeft=4;spacingRight=4;overflow=hidden;rotatable=0;points=[[0,0.5],[1,0.5]];portConstraint=eastwest;rounded=0;shadow=0;html=0;" parent="fSSnkKhONHnSPeiWQdq9-31" vertex="1">
          <mxGeometry y="142" width="194.29" height="26" as="geometry" />
        </mxCell>
        <mxCell id="Liz70xh0E30Ar9lDT0JQ-13" value="langue: String" style="text;align=left;verticalAlign=top;spacingLeft=4;spacingRight=4;overflow=hidden;rotatable=0;points=[[0,0.5],[1,0.5]];portConstraint=eastwest;rounded=0;shadow=0;html=0;" parent="fSSnkKhONHnSPeiWQdq9-31" vertex="1">
          <mxGeometry y="168" width="194.29" height="30" as="geometry" />
        </mxCell>
        <mxCell id="Liz70xh0E30Ar9lDT0JQ-14" value="responsable: String" style="text;align=left;verticalAlign=top;spacingLeft=4;spacingRight=4;overflow=hidden;rotatable=0;points=[[0,0.5],[1,0.5]];portConstraint=eastwest;rounded=0;shadow=0;html=0;" parent="fSSnkKhONHnSPeiWQdq9-31" vertex="1">
          <mxGeometry y="198" width="194.29" height="30" as="geometry" />
        </mxCell>
        <mxCell id="4HMBv36Nge665kwI8IaE-1" value="Médecin" style="swimlane;fontStyle=1;align=center;verticalAlign=top;childLayout=stackLayout;horizontal=1;startSize=26;horizontalStack=0;resizeParent=1;resizeLast=0;collapsible=1;marginBottom=0;rounded=0;shadow=0;strokeWidth=1;" parent="1" vertex="1">
          <mxGeometry x="129.85" y="1014" width="194.29" height="100" as="geometry">
            <mxRectangle x="550" y="140" width="160" height="26" as="alternateBounds" />
          </mxGeometry>
        </mxCell>
        <mxCell id="4HMBv36Nge665kwI8IaE-4" value="num_licence: String" style="text;align=left;verticalAlign=top;spacingLeft=4;spacingRight=4;overflow=hidden;rotatable=0;points=[[0,0.5],[1,0.5]];portConstraint=eastwest;rounded=0;shadow=0;html=0;" parent="4HMBv36Nge665kwI8IaE-1" vertex="1">
          <mxGeometry y="26" width="194.29" height="26" as="geometry" />
        </mxCell>
        <mxCell id="VJPBG330XnQBzx9i4Lb_-1" value="" style="html=1;verticalAlign=bottom;endArrow=block;curved=0;rounded=0;exitX=0.5;exitY=0;exitDx=0;exitDy=0;endFill=0;strokeWidth=1;jumpSize=10;fontSize=10;endSize=14;entryX=0.5;entryY=1;entryDx=0;entryDy=0;" parent="1" source="4HMBv36Nge665kwI8IaE-1" target="fSSnkKhONHnSPeiWQdq9-31" edge="1">
          <mxGeometry width="80" relative="1" as="geometry">
            <mxPoint x="630" y="1084" as="sourcePoint" />
            <mxPoint x="1110" y="939" as="targetPoint" />
          </mxGeometry>
        </mxCell>
        <mxCell id="BcY6Sn8Lkc4OsGFnqYsF-2" value="Infirmier" style="swimlane;fontStyle=1;align=center;verticalAlign=top;childLayout=stackLayout;horizontal=1;startSize=26;horizontalStack=0;resizeParent=1;resizeLast=0;collapsible=1;marginBottom=0;rounded=0;shadow=0;strokeWidth=1;" parent="1" vertex="1">
          <mxGeometry x="736.85" y="804" width="194.29" height="90" as="geometry">
            <mxRectangle x="550" y="140" width="160" height="26" as="alternateBounds" />
          </mxGeometry>
        </mxCell>
        <mxCell id="BcY6Sn8Lkc4OsGFnqYsF-4" value="niveau_certification: String" style="text;align=left;verticalAlign=top;spacingLeft=4;spacingRight=4;overflow=hidden;rotatable=0;points=[[0,0.5],[1,0.5]];portConstraint=eastwest;rounded=0;shadow=0;html=0;" parent="BcY6Sn8Lkc4OsGFnqYsF-2" vertex="1">
          <mxGeometry y="26" width="194.29" height="20" as="geometry" />
        </mxCell>
        <mxCell id="BcY6Sn8Lkc4OsGFnqYsF-7" value="" style="html=1;verticalAlign=bottom;endArrow=block;curved=0;rounded=0;exitX=0.5;exitY=1;exitDx=0;exitDy=0;endFill=0;strokeWidth=1;jumpSize=10;fontSize=10;endSize=14;entryX=0;entryY=1;entryDx=0;entryDy=0;" parent="1" source="BcY6Sn8Lkc4OsGFnqYsF-2" target="fSSnkKhONHnSPeiWQdq9-31" edge="1">
          <mxGeometry width="80" relative="1" as="geometry">
            <mxPoint x="757" y="1064" as="sourcePoint" />
            <mxPoint x="930" y="939" as="targetPoint" />
          </mxGeometry>
        </mxCell>
        <mxCell id="eylT0aVJR5v2lH_k7m9G-1" value="Intendance" style="swimlane;fontStyle=1;align=center;verticalAlign=top;childLayout=stackLayout;horizontal=1;startSize=26;horizontalStack=0;resizeParent=1;resizeLast=0;collapsible=1;marginBottom=0;rounded=0;shadow=0;strokeWidth=1;" parent="1" vertex="1">
          <mxGeometry x="973" y="1025" width="194.29" height="110" as="geometry">
            <mxRectangle x="550" y="140" width="160" height="26" as="alternateBounds" />
          </mxGeometry>
        </mxCell>
        <mxCell id="eylT0aVJR5v2lH_k7m9G-3" value="zone_attribuee: String" style="text;align=left;verticalAlign=top;spacingLeft=4;spacingRight=4;overflow=hidden;rotatable=0;points=[[0,0.5],[1,0.5]];portConstraint=eastwest;rounded=0;shadow=0;html=0;" parent="eylT0aVJR5v2lH_k7m9G-1" vertex="1">
          <mxGeometry y="26" width="194.29" height="20" as="geometry" />
        </mxCell>
        <mxCell id="OWp6cQi3-IxgY9qEHowN-2" value="fonction: String" style="text;align=left;verticalAlign=top;spacingLeft=4;spacingRight=4;overflow=hidden;rotatable=0;points=[[0,0.5],[1,0.5]];portConstraint=eastwest;rounded=0;shadow=0;html=0;" parent="eylT0aVJR5v2lH_k7m9G-1" vertex="1">
          <mxGeometry y="46" width="194.29" height="20" as="geometry" />
        </mxCell>
        <mxCell id="Liz70xh0E30Ar9lDT0JQ-4" value="Profil médical" style="swimlane;fontStyle=1;align=center;verticalAlign=top;childLayout=stackLayout;horizontal=1;startSize=26;horizontalStack=0;resizeParent=1;resizeLast=0;collapsible=1;marginBottom=0;rounded=0;shadow=0;strokeWidth=1;" parent="1" vertex="1">
          <mxGeometry x="-314.29" y="266" width="194.29" height="130" as="geometry">
            <mxRectangle x="550" y="140" width="160" height="26" as="alternateBounds" />
          </mxGeometry>
        </mxCell>
        <mxCell id="Liz70xh0E30Ar9lDT0JQ-5" value="id_profil_médical: int" style="text;align=left;verticalAlign=top;spacingLeft=4;spacingRight=4;overflow=hidden;rotatable=0;points=[[0,0.5],[1,0.5]];portConstraint=eastwest;rounded=0;shadow=0;html=0;fontStyle=4;fontFamily=Helvetica;fontSize=12;fontColor=default;" parent="Liz70xh0E30Ar9lDT0JQ-4" vertex="1">
          <mxGeometry y="26" width="194.29" height="24" as="geometry" />
        </mxCell>
        <mxCell id="Liz70xh0E30Ar9lDT0JQ-15" value="Chambre" style="swimlane;fontStyle=1;align=center;verticalAlign=top;childLayout=stackLayout;horizontal=1;startSize=26;horizontalStack=0;resizeParent=1;resizeLast=0;collapsible=1;marginBottom=0;rounded=0;shadow=0;strokeWidth=1;" parent="1" vertex="1">
          <mxGeometry x="487" y="379" width="194.29" height="101" as="geometry">
            <mxRectangle x="550" y="140" width="160" height="26" as="alternateBounds" />
          </mxGeometry>
        </mxCell>
        <mxCell id="Liz70xh0E30Ar9lDT0JQ-19" value="id_patient: int" style="text;align=left;verticalAlign=top;spacingLeft=4;spacingRight=4;overflow=hidden;rotatable=0;points=[[0,0.5],[1,0.5]];portConstraint=eastwest;rounded=0;shadow=0;html=0;" parent="Liz70xh0E30Ar9lDT0JQ-15" vertex="1">
          <mxGeometry y="26" width="194.29" height="26" as="geometry" />
        </mxCell>
        <mxCell id="Liz70xh0E30Ar9lDT0JQ-23" value="Service" style="swimlane;fontStyle=1;align=center;verticalAlign=top;childLayout=stackLayout;horizontal=1;startSize=26;horizontalStack=0;resizeParent=1;resizeLast=0;collapsible=1;marginBottom=0;rounded=0;shadow=0;strokeWidth=1;" parent="1" vertex="1">
          <mxGeometry x="533.05" y="41" width="194.29" height="162" as="geometry">
            <mxRectangle x="550" y="140" width="160" height="26" as="alternateBounds" />
          </mxGeometry>
        </mxCell>
        <mxCell id="Liz70xh0E30Ar9lDT0JQ-24" value="id_service: int" style="text;align=left;verticalAlign=top;spacingLeft=4;spacingRight=4;overflow=hidden;rotatable=0;points=[[0,0.5],[1,0.5]];portConstraint=eastwest;rounded=0;shadow=0;html=0;fontStyle=4" parent="Liz70xh0E30Ar9lDT0JQ-23" vertex="1">
          <mxGeometry y="26" width="194.29" height="18" as="geometry" />
        </mxCell>
        <mxCell id="Liz70xh0E30Ar9lDT0JQ-25" value="nom: String" style="text;align=left;verticalAlign=top;spacingLeft=4;spacingRight=4;overflow=hidden;rotatable=0;points=[[0,0.5],[1,0.5]];portConstraint=eastwest;rounded=0;shadow=0;html=0;" parent="Liz70xh0E30Ar9lDT0JQ-23" vertex="1">
          <mxGeometry y="44" width="194.29" height="20" as="geometry" />
        </mxCell>
        <mxCell id="Liz70xh0E30Ar9lDT0JQ-31" value="Équipement" style="swimlane;fontStyle=1;align=center;verticalAlign=top;childLayout=stackLayout;horizontal=1;startSize=26;horizontalStack=0;resizeParent=1;resizeLast=0;collapsible=1;marginBottom=0;rounded=0;shadow=0;strokeWidth=1;" parent="1" vertex="1">
          <mxGeometry x="934.1300000000001" y="13" width="194.29" height="182" as="geometry">
            <mxRectangle x="550" y="140" width="160" height="26" as="alternateBounds" />
          </mxGeometry>
        </mxCell>
        <mxCell id="Liz70xh0E30Ar9lDT0JQ-32" value="id_équipement: int" style="text;align=left;verticalAlign=top;spacingLeft=4;spacingRight=4;overflow=hidden;rotatable=0;points=[[0,0.5],[1,0.5]];portConstraint=eastwest;rounded=0;shadow=0;html=0;fontStyle=4" parent="Liz70xh0E30Ar9lDT0JQ-31" vertex="1">
          <mxGeometry y="26" width="194.29" height="18" as="geometry" />
        </mxCell>
        <mxCell id="Liz70xh0E30Ar9lDT0JQ-33" value="nom: String" style="text;align=left;verticalAlign=top;spacingLeft=4;spacingRight=4;overflow=hidden;rotatable=0;points=[[0,0.5],[1,0.5]];portConstraint=eastwest;rounded=0;shadow=0;html=0;" parent="Liz70xh0E30Ar9lDT0JQ-31" vertex="1">
          <mxGeometry y="44" width="194.29" height="20" as="geometry" />
        </mxCell>
        <mxCell id="Liz70xh0E30Ar9lDT0JQ-34" value="type: String" style="text;align=left;verticalAlign=top;spacingLeft=4;spacingRight=4;overflow=hidden;rotatable=0;points=[[0,0.5],[1,0.5]];portConstraint=eastwest;rounded=0;shadow=0;html=0;" parent="Liz70xh0E30Ar9lDT0JQ-31" vertex="1">
          <mxGeometry y="64" width="194.29" height="26" as="geometry" />
        </mxCell>
        <mxCell id="Liz70xh0E30Ar9lDT0JQ-47" value="Hospitalisation" style="swimlane;fontStyle=1;align=center;verticalAlign=top;childLayout=stackLayout;horizontal=1;startSize=26;horizontalStack=0;resizeParent=1;resizeLast=0;collapsible=1;marginBottom=0;rounded=0;shadow=0;strokeWidth=1;" parent="1" vertex="1">
          <mxGeometry x="345" y="700" width="194.29" height="220" as="geometry">
            <mxRectangle x="550" y="140" width="160" height="26" as="alternateBounds" />
          </mxGeometry>
        </mxCell>
        <mxCell id="Liz70xh0E30Ar9lDT0JQ-48" value="id_hospitalisation: int" style="text;align=left;verticalAlign=top;spacingLeft=4;spacingRight=4;overflow=hidden;rotatable=0;points=[[0,0.5],[1,0.5]];portConstraint=eastwest;rounded=0;shadow=0;html=0;fontStyle=4" parent="Liz70xh0E30Ar9lDT0JQ-47" vertex="1">
          <mxGeometry y="26" width="194.29" height="18" as="geometry" />
        </mxCell>
        <mxCell id="Liz70xh0E30Ar9lDT0JQ-51" value="motif: TEXT/CLOB" style="text;align=left;verticalAlign=top;spacingLeft=4;spacingRight=4;overflow=hidden;rotatable=0;points=[[0,0.5],[1,0.5]];portConstraint=eastwest;rounded=0;shadow=0;html=0;" parent="Liz70xh0E30Ar9lDT0JQ-47" vertex="1">
          <mxGeometry y="44" width="194.29" height="26" as="geometry" />
        </mxCell>
        <mxCell id="o44cOPp-4JualUAl15hT-55" style="edgeStyle=orthogonalEdgeStyle;rounded=0;orthogonalLoop=1;jettySize=auto;html=1;exitX=1;exitY=0.5;exitDx=0;exitDy=0;endArrow=diamond;endFill=1;endSize=17;" parent="1" source="Liz70xh0E30Ar9lDT0JQ-55" edge="1">
          <mxGeometry relative="1" as="geometry">
            <Array as="points">
              <mxPoint x="-775" y="742" />
            </Array>
            <mxPoint x="-630" y="730" as="targetPoint" />
          </mxGeometry>
        </mxCell>
        <mxCell id="o44cOPp-4JualUAl15hT-57" value="résulte de" style="edgeLabel;html=1;align=center;verticalAlign=middle;resizable=0;points=[];" parent="o44cOPp-4JualUAl15hT-55" vertex="1" connectable="0">
          <mxGeometry x="0.7997" y="2" relative="1" as="geometry">
            <mxPoint x="-26" y="19" as="offset" />
          </mxGeometry>
        </mxCell>
        <mxCell id="o44cOPp-4JualUAl15hT-59" value="0..1" style="edgeLabel;html=1;align=center;verticalAlign=middle;resizable=0;points=[];" parent="o44cOPp-4JualUAl15hT-55" vertex="1" connectable="0">
          <mxGeometry x="-0.7061" y="3" relative="1" as="geometry">
            <mxPoint x="-2" y="-6" as="offset" />
          </mxGeometry>
        </mxCell>
        <mxCell id="Liz70xh0E30Ar9lDT0JQ-55" value="PRESCRIPTION" style="swimlane;fontStyle=1;align=center;verticalAlign=top;childLayout=stackLayout;horizontal=1;startSize=26;horizontalStack=0;resizeParent=1;resizeLast=0;collapsible=1;marginBottom=0;rounded=0;shadow=0;strokeWidth=1;" parent="1" vertex="1">
          <mxGeometry x="-969" y="629" width="194.29" height="210" as="geometry">
            <mxRectangle x="550" y="140" width="160" height="26" as="alternateBounds" />
          </mxGeometry>
        </mxCell>
        <mxCell id="Liz70xh0E30Ar9lDT0JQ-56" value="id_prescription: int" style="text;align=left;verticalAlign=top;spacingLeft=4;spacingRight=4;overflow=hidden;rotatable=0;points=[[0,0.5],[1,0.5]];portConstraint=eastwest;rounded=0;shadow=0;html=0;fontStyle=4" parent="Liz70xh0E30Ar9lDT0JQ-55" vertex="1">
          <mxGeometry y="26" width="194.29" height="18" as="geometry" />
        </mxCell>
        <mxCell id="Liz70xh0E30Ar9lDT0JQ-59" value="date: DateTime" style="text;align=left;verticalAlign=top;spacingLeft=4;spacingRight=4;overflow=hidden;rotatable=0;points=[[0,0.5],[1,0.5]];portConstraint=eastwest;rounded=0;shadow=0;html=0;" parent="Liz70xh0E30Ar9lDT0JQ-55" vertex="1">
          <mxGeometry y="44" width="194.29" height="26" as="geometry" />
        </mxCell>
        <mxCell id="Liz70xh0E30Ar9lDT0JQ-60" value="description: TEXT/CLOB" style="text;align=left;verticalAlign=top;spacingLeft=4;spacingRight=4;overflow=hidden;rotatable=0;points=[[0,0.5],[1,0.5]];portConstraint=eastwest;rounded=0;shadow=0;html=0;" parent="Liz70xh0E30Ar9lDT0JQ-55" vertex="1">
          <mxGeometry y="70" width="194.29" height="26" as="geometry" />
        </mxCell>
        <mxCell id="Liz70xh0E30Ar9lDT0JQ-63" value="Consultation" style="swimlane;fontStyle=1;align=center;verticalAlign=top;childLayout=stackLayout;horizontal=1;startSize=26;horizontalStack=0;resizeParent=1;resizeLast=0;collapsible=1;marginBottom=0;rounded=0;shadow=0;strokeWidth=1;" parent="1" vertex="1">
          <mxGeometry x="-630" y="607" width="194.29" height="230" as="geometry">
            <mxRectangle x="550" y="140" width="160" height="26" as="alternateBounds" />
          </mxGeometry>
        </mxCell>
        <mxCell id="Liz70xh0E30Ar9lDT0JQ-64" value="id_consultation: int" style="text;align=left;verticalAlign=top;spacingLeft=4;spacingRight=4;overflow=hidden;rotatable=0;points=[[0,0.5],[1,0.5]];portConstraint=eastwest;rounded=0;shadow=0;html=0;fontStyle=4" parent="Liz70xh0E30Ar9lDT0JQ-63" vertex="1">
          <mxGeometry y="26" width="194.29" height="18" as="geometry" />
        </mxCell>
        <mxCell id="Liz70xh0E30Ar9lDT0JQ-67" value="date: DateTime" style="text;align=left;verticalAlign=top;spacingLeft=4;spacingRight=4;overflow=hidden;rotatable=0;points=[[0,0.5],[1,0.5]];portConstraint=eastwest;rounded=0;shadow=0;html=0;" parent="Liz70xh0E30Ar9lDT0JQ-63" vertex="1">
          <mxGeometry y="44" width="194.29" height="26" as="geometry" />
        </mxCell>
        <mxCell id="Liz70xh0E30Ar9lDT0JQ-97" value="motif: TEXT/CLOB" style="text;align=left;verticalAlign=top;spacingLeft=4;spacingRight=4;overflow=hidden;rotatable=0;points=[[0,0.5],[1,0.5]];portConstraint=eastwest;rounded=0;shadow=0;html=0;" parent="Liz70xh0E30Ar9lDT0JQ-63" vertex="1">
          <mxGeometry y="70" width="194.29" height="26" as="geometry" />
        </mxCell>
        <mxCell id="o44cOPp-4JualUAl15hT-4" style="edgeStyle=orthogonalEdgeStyle;rounded=0;orthogonalLoop=1;jettySize=auto;html=1;exitX=0.5;exitY=1;exitDx=0;exitDy=0;endArrow=none;startFill=0;entryX=1;entryY=0.5;entryDx=0;entryDy=0;" parent="Liz70xh0E30Ar9lDT0JQ-63" source="Liz70xh0E30Ar9lDT0JQ-63" edge="1">
          <mxGeometry relative="1" as="geometry">
            <mxPoint x="194.28999999999996" y="83" as="targetPoint" />
            <Array as="points">
              <mxPoint x="170" y="230" />
              <mxPoint x="170" y="294" />
              <mxPoint x="340" y="294" />
              <mxPoint x="340" y="135" />
            </Array>
          </mxGeometry>
        </mxCell>
        <mxCell id="o44cOPp-4JualUAl15hT-11" value="Consultation initiale" style="edgeLabel;html=1;align=center;verticalAlign=middle;resizable=0;points=[];" parent="o44cOPp-4JualUAl15hT-4" vertex="1" connectable="0">
          <mxGeometry x="0.9437" y="-1" relative="1" as="geometry">
            <mxPoint x="52" y="18" as="offset" />
          </mxGeometry>
        </mxCell>
        <mxCell id="o44cOPp-4JualUAl15hT-12" value="Consultation dérivée" style="edgeLabel;html=1;align=center;verticalAlign=middle;resizable=0;points=[];" parent="o44cOPp-4JualUAl15hT-4" vertex="1" connectable="0">
          <mxGeometry x="-0.9741" y="-1" relative="1" as="geometry">
            <mxPoint x="1" y="10" as="offset" />
          </mxGeometry>
        </mxCell>
        <mxCell id="Liz70xh0E30Ar9lDT0JQ-71" value="Urgence" style="swimlane;fontStyle=1;align=center;verticalAlign=top;childLayout=stackLayout;horizontal=1;startSize=26;horizontalStack=0;resizeParent=1;resizeLast=0;collapsible=1;marginBottom=0;rounded=0;shadow=0;strokeWidth=1;" parent="1" vertex="1">
          <mxGeometry x="-240" y="795" width="194.29" height="160" as="geometry">
            <mxRectangle x="550" y="140" width="160" height="26" as="alternateBounds" />
          </mxGeometry>
        </mxCell>
        <mxCell id="Liz70xh0E30Ar9lDT0JQ-72" value="id_urgence: int" style="text;align=left;verticalAlign=top;spacingLeft=4;spacingRight=4;overflow=hidden;rotatable=0;points=[[0,0.5],[1,0.5]];portConstraint=eastwest;rounded=0;shadow=0;html=0;fontStyle=4" parent="Liz70xh0E30Ar9lDT0JQ-71" vertex="1">
          <mxGeometry y="26" width="194.29" height="18" as="geometry" />
        </mxCell>
        <mxCell id="Liz70xh0E30Ar9lDT0JQ-74" value="date: DateTime" style="text;align=left;verticalAlign=top;spacingLeft=4;spacingRight=4;overflow=hidden;rotatable=0;points=[[0,0.5],[1,0.5]];portConstraint=eastwest;rounded=0;shadow=0;html=0;" parent="Liz70xh0E30Ar9lDT0JQ-71" vertex="1">
          <mxGeometry y="44" width="194.29" height="26" as="geometry" />
        </mxCell>
        <mxCell id="Liz70xh0E30Ar9lDT0JQ-75" value="description: TEXT/CLOB" style="text;align=left;verticalAlign=top;spacingLeft=4;spacingRight=4;overflow=hidden;rotatable=0;points=[[0,0.5],[1,0.5]];portConstraint=eastwest;rounded=0;shadow=0;html=0;" parent="Liz70xh0E30Ar9lDT0JQ-71" vertex="1">
          <mxGeometry y="70" width="194.29" height="26" as="geometry" />
        </mxCell>
        <mxCell id="Liz70xh0E30Ar9lDT0JQ-79" value="Facture" style="swimlane;fontStyle=1;align=center;verticalAlign=top;childLayout=stackLayout;horizontal=1;startSize=26;horizontalStack=0;resizeParent=1;resizeLast=0;collapsible=1;marginBottom=0;rounded=0;shadow=0;strokeWidth=1;" parent="1" vertex="1">
          <mxGeometry x="763.64" y="424.5" width="194.29" height="135.5" as="geometry">
            <mxRectangle x="550" y="140" width="160" height="26" as="alternateBounds" />
          </mxGeometry>
        </mxCell>
        <mxCell id="Liz70xh0E30Ar9lDT0JQ-80" value="id_facture: int" style="text;align=left;verticalAlign=top;spacingLeft=4;spacingRight=4;overflow=hidden;rotatable=0;points=[[0,0.5],[1,0.5]];portConstraint=eastwest;rounded=0;shadow=0;html=0;fontStyle=4" parent="Liz70xh0E30Ar9lDT0JQ-79" vertex="1">
          <mxGeometry y="26" width="194.29" height="18" as="geometry" />
        </mxCell>
        <mxCell id="Liz70xh0E30Ar9lDT0JQ-82" value="montant: float" style="text;align=left;verticalAlign=top;spacingLeft=4;spacingRight=4;overflow=hidden;rotatable=0;points=[[0,0.5],[1,0.5]];portConstraint=eastwest;rounded=0;shadow=0;html=0;" parent="Liz70xh0E30Ar9lDT0JQ-79" vertex="1">
          <mxGeometry y="44" width="194.29" height="26" as="geometry" />
        </mxCell>
        <mxCell id="Liz70xh0E30Ar9lDT0JQ-83" value="date: DateTime" style="text;align=left;verticalAlign=top;spacingLeft=4;spacingRight=4;overflow=hidden;rotatable=0;points=[[0,0.5],[1,0.5]];portConstraint=eastwest;rounded=0;shadow=0;html=0;" parent="Liz70xh0E30Ar9lDT0JQ-79" vertex="1">
          <mxGeometry y="70" width="194.29" height="26" as="geometry" />
        </mxCell>
        <mxCell id="Liz70xh0E30Ar9lDT0JQ-87" value="Médicament" style="swimlane;fontStyle=1;align=center;verticalAlign=top;childLayout=stackLayout;horizontal=1;startSize=26;horizontalStack=0;resizeParent=1;resizeLast=0;collapsible=1;marginBottom=0;rounded=0;shadow=0;strokeWidth=1;" parent="1" vertex="1">
          <mxGeometry x="-1399" y="655" width="194.29" height="125" as="geometry">
            <mxRectangle x="550" y="140" width="160" height="26" as="alternateBounds" />
          </mxGeometry>
        </mxCell>
        <mxCell id="Liz70xh0E30Ar9lDT0JQ-88" value="id_médicament: int" style="text;align=left;verticalAlign=top;spacingLeft=4;spacingRight=4;overflow=hidden;rotatable=0;points=[[0,0.5],[1,0.5]];portConstraint=eastwest;rounded=0;shadow=0;html=0;fontStyle=4" parent="Liz70xh0E30Ar9lDT0JQ-87" vertex="1">
          <mxGeometry y="26" width="194.29" height="18" as="geometry" />
        </mxCell>
        <mxCell id="Liz70xh0E30Ar9lDT0JQ-89" value="nom: String" style="text;align=left;verticalAlign=top;spacingLeft=4;spacingRight=4;overflow=hidden;rotatable=0;points=[[0,0.5],[1,0.5]];portConstraint=eastwest;rounded=0;shadow=0;html=0;" parent="Liz70xh0E30Ar9lDT0JQ-87" vertex="1">
          <mxGeometry y="44" width="194.29" height="26" as="geometry" />
        </mxCell>
        <mxCell id="Liz70xh0E30Ar9lDT0JQ-90" value="description: TEXT/CLOB" style="text;align=left;verticalAlign=top;spacingLeft=4;spacingRight=4;overflow=hidden;rotatable=0;points=[[0,0.5],[1,0.5]];portConstraint=eastwest;rounded=0;shadow=0;html=0;" parent="Liz70xh0E30Ar9lDT0JQ-87" vertex="1">
          <mxGeometry y="70" width="194.29" height="26" as="geometry" />
        </mxCell>
        <mxCell id="7mnhMrXWLqBICXK2y1j6-3" value="" style="html=1;verticalAlign=bottom;endArrow=block;curved=0;rounded=0;exitX=0.5;exitY=0;exitDx=0;exitDy=0;endFill=0;strokeWidth=1;jumpSize=10;fontSize=10;endSize=14;entryX=0.75;entryY=1;entryDx=0;entryDy=0;" parent="1" source="eylT0aVJR5v2lH_k7m9G-1" target="fSSnkKhONHnSPeiWQdq9-31" edge="1">
          <mxGeometry width="80" relative="1" as="geometry">
            <mxPoint x="1127" y="1089" as="sourcePoint" />
            <mxPoint x="1150" y="969" as="targetPoint" />
          </mxGeometry>
        </mxCell>
        <mxCell id="7mnhMrXWLqBICXK2y1j6-6" value="" style="endArrow=none;html=1;rounded=0;exitX=1;exitY=0.5;exitDx=0;exitDy=0;" parent="1" edge="1">
          <mxGeometry width="50" height="50" relative="1" as="geometry">
            <mxPoint x="-120" y="349" as="sourcePoint" />
            <mxPoint x="80" y="347.75" as="targetPoint" />
          </mxGeometry>
        </mxCell>
        <mxCell id="7mnhMrXWLqBICXK2y1j6-7" value="1..1" style="edgeLabel;html=1;align=center;verticalAlign=middle;resizable=0;points=[];" parent="7mnhMrXWLqBICXK2y1j6-6" vertex="1" connectable="0">
          <mxGeometry x="0.8859" y="2" relative="1" as="geometry">
            <mxPoint x="-4" y="-8" as="offset" />
          </mxGeometry>
        </mxCell>
        <mxCell id="7mnhMrXWLqBICXK2y1j6-8" value="0..n" style="edgeLabel;html=1;align=center;verticalAlign=middle;resizable=0;points=[];" parent="1" vertex="1" connectable="0">
          <mxGeometry x="23.004389555530125" y="349.99637750591216" as="geometry">
            <mxPoint x="-128" y="-12" as="offset" />
          </mxGeometry>
        </mxCell>
        <mxCell id="7mnhMrXWLqBICXK2y1j6-10" value="est associé à" style="edgeLabel;html=1;align=center;verticalAlign=middle;resizable=0;points=[];" parent="1" vertex="1" connectable="0">
          <mxGeometry x="55.004389555529684" y="359.99637750591216" as="geometry">
            <mxPoint x="-11" y="-3" as="offset" />
          </mxGeometry>
        </mxCell>
        <mxCell id="7mnhMrXWLqBICXK2y1j6-11" value="a pour patient" style="edgeLabel;html=1;align=center;verticalAlign=middle;resizable=0;points=[];" parent="1" vertex="1" connectable="0">
          <mxGeometry x="-83.99561044447032" y="358.99637750591216" as="geometry" />
        </mxCell>
        <mxCell id="LIPTSqcopBgNWa-e8DmY-2" value="" style="endArrow=none;html=1;rounded=0;" parent="1" edge="1">
          <mxGeometry width="50" height="50" relative="1" as="geometry">
            <mxPoint x="540" y="750" as="sourcePoint" />
            <mxPoint x="487" y="420" as="targetPoint" />
            <Array as="points">
              <mxPoint x="590" y="750" />
              <mxPoint x="640" y="750" />
              <mxPoint x="640" y="590" />
              <mxPoint x="430" y="590" />
              <mxPoint x="430" y="420" />
            </Array>
          </mxGeometry>
        </mxCell>
        <mxCell id="LIPTSqcopBgNWa-e8DmY-3" value="1..n" style="edgeLabel;html=1;align=center;verticalAlign=middle;resizable=0;points=[];" parent="LIPTSqcopBgNWa-e8DmY-2" vertex="1" connectable="0">
          <mxGeometry x="0.8859" y="2" relative="1" as="geometry">
            <mxPoint x="23" y="-13" as="offset" />
          </mxGeometry>
        </mxCell>
        <mxCell id="LIPTSqcopBgNWa-e8DmY-4" value="0..n" style="edgeLabel;html=1;align=center;verticalAlign=middle;resizable=0;points=[];" parent="1" vertex="1" connectable="0">
          <mxGeometry x="680.2943895555301" y="751.9963775059122" as="geometry">
            <mxPoint x="-128" y="-12" as="offset" />
          </mxGeometry>
        </mxCell>
        <mxCell id="LIPTSqcopBgNWa-e8DmY-5" value="se déroule" style="edgeLabel;html=1;align=center;verticalAlign=middle;resizable=0;points=[];" parent="1" vertex="1" connectable="0">
          <mxGeometry x="582.1443895555296" y="757.9963775059122" as="geometry">
            <mxPoint x="-15" y="-1" as="offset" />
          </mxGeometry>
        </mxCell>
        <mxCell id="LIPTSqcopBgNWa-e8DmY-6" value="accueille" style="edgeLabel;html=1;align=center;verticalAlign=middle;resizable=0;points=[];" parent="1" vertex="1" connectable="0">
          <mxGeometry x="460.00438955552966" y="430.49637750591216" as="geometry">
            <mxPoint x="-26" y="4" as="offset" />
          </mxGeometry>
        </mxCell>
        <mxCell id="LIPTSqcopBgNWa-e8DmY-9" value="1..n" style="edgeLabel;html=1;align=center;verticalAlign=middle;resizable=0;points=[];" parent="1" vertex="1" connectable="0">
          <mxGeometry x="478.00438955553" y="120.99637750591216" as="geometry">
            <mxPoint x="-128" y="-12" as="offset" />
          </mxGeometry>
        </mxCell>
        <mxCell id="LIPTSqcopBgNWa-e8DmY-10" value="gère" style="edgeLabel;html=1;align=center;verticalAlign=middle;resizable=0;points=[];" parent="1" vertex="1" connectable="0">
          <mxGeometry x="531.1343895555297" y="129.99637750591216" as="geometry">
            <mxPoint x="-15" y="-1" as="offset" />
          </mxGeometry>
        </mxCell>
        <mxCell id="LIPTSqcopBgNWa-e8DmY-11" value="appartient à" style="edgeLabel;html=1;align=center;verticalAlign=middle;resizable=0;points=[];" parent="1" vertex="1" connectable="0">
          <mxGeometry x="388.00438955552966" y="125.49637750591216" as="geometry">
            <mxPoint x="-26" y="4" as="offset" />
          </mxGeometry>
        </mxCell>
        <mxCell id="LIPTSqcopBgNWa-e8DmY-14" value="1..1" style="edgeLabel;html=1;align=center;verticalAlign=middle;resizable=0;points=[];" parent="1" vertex="1" connectable="0">
          <mxGeometry x="870.1343895555301" y="87.99637750591216" as="geometry">
            <mxPoint x="-128" y="-12" as="offset" />
          </mxGeometry>
        </mxCell>
        <mxCell id="LIPTSqcopBgNWa-e8DmY-15" value="appartient à" style="edgeLabel;html=1;align=center;verticalAlign=middle;resizable=0;points=[];" parent="1" vertex="1" connectable="0">
          <mxGeometry x="916.1343895555297" y="96.99637750591216" as="geometry">
            <mxPoint x="-15" y="-1" as="offset" />
          </mxGeometry>
        </mxCell>
        <mxCell id="LIPTSqcopBgNWa-e8DmY-16" value="gère" style="edgeLabel;html=1;align=center;verticalAlign=middle;resizable=0;points=[];" parent="1" vertex="1" connectable="0">
          <mxGeometry x="769.1343895555297" y="95.99637750591216" as="geometry">
            <mxPoint x="-26" y="4" as="offset" />
          </mxGeometry>
        </mxCell>
        <mxCell id="LIPTSqcopBgNWa-e8DmY-19" value="0..1" style="edgeLabel;html=1;align=center;verticalAlign=middle;resizable=0;points=[];" parent="1" vertex="1" connectable="0">
          <mxGeometry x="869.1343895555301" y="149.99637750591216" as="geometry">
            <mxPoint x="-128" y="-12" as="offset" />
          </mxGeometry>
        </mxCell>
        <mxCell id="LIPTSqcopBgNWa-e8DmY-20" value="est prêté à" style="edgeLabel;html=1;align=center;verticalAlign=middle;resizable=0;points=[];" parent="1" vertex="1" connectable="0">
          <mxGeometry x="918.1343895555297" y="157.99637750591216" as="geometry">
            <mxPoint x="-15" y="-1" as="offset" />
          </mxGeometry>
        </mxCell>
        <mxCell id="LIPTSqcopBgNWa-e8DmY-21" value="prête" style="edgeLabel;html=1;align=center;verticalAlign=middle;resizable=0;points=[];" parent="1" vertex="1" connectable="0">
          <mxGeometry x="771.1343895555297" y="152.99637750591216" as="geometry">
            <mxPoint x="-26" y="4" as="offset" />
          </mxGeometry>
        </mxCell>
        <mxCell id="LIPTSqcopBgNWa-e8DmY-31" value="1..1" style="edgeLabel;html=1;align=center;verticalAlign=middle;resizable=0;points=[];" parent="1" vertex="1" connectable="0">
          <mxGeometry x="513.1286965856307" y="108.99988901889515" as="geometry" />
        </mxCell>
        <mxCell id="LIPTSqcopBgNWa-e8DmY-39" style="edgeStyle=orthogonalEdgeStyle;rounded=0;orthogonalLoop=1;jettySize=auto;html=1;endArrow=none;startFill=0;startArrow=none;exitX=1;exitY=0.5;exitDx=0;exitDy=0;entryX=0;entryY=0.5;entryDx=0;entryDy=0;" parent="1" target="Liz70xh0E30Ar9lDT0JQ-79" edge="1">
          <mxGeometry relative="1" as="geometry">
            <Array as="points">
              <mxPoint x="539" y="800" />
              <mxPoint x="720" y="800" />
              <mxPoint x="720" y="502" />
              <mxPoint x="764" y="502" />
            </Array>
            <mxPoint x="539.29" y="757" as="sourcePoint" />
            <mxPoint x="720" y="500" as="targetPoint" />
          </mxGeometry>
        </mxCell>
        <mxCell id="LIPTSqcopBgNWa-e8DmY-40" value="1..1" style="edgeLabel;html=1;align=center;verticalAlign=middle;resizable=0;points=[];" parent="LIPTSqcopBgNWa-e8DmY-39" vertex="1" connectable="0">
          <mxGeometry x="-0.9504" y="9" relative="1" as="geometry">
            <mxPoint x="4" y="17" as="offset" />
          </mxGeometry>
        </mxCell>
        <mxCell id="LIPTSqcopBgNWa-e8DmY-41" value="1..1" style="edgeLabel;html=1;align=center;verticalAlign=middle;resizable=0;points=[];" parent="LIPTSqcopBgNWa-e8DmY-39" vertex="1" connectable="0">
          <mxGeometry x="0.9198" y="4" relative="1" as="geometry">
            <mxPoint x="-2" y="-8" as="offset" />
          </mxGeometry>
        </mxCell>
        <mxCell id="LIPTSqcopBgNWa-e8DmY-42" value="entraîne" style="edgeLabel;html=1;align=center;verticalAlign=middle;resizable=0;points=[];" parent="1" vertex="1" connectable="0">
          <mxGeometry x="558.9970967741934" y="798" as="geometry">
            <mxPoint x="2" y="11" as="offset" />
          </mxGeometry>
        </mxCell>
        <mxCell id="LIPTSqcopBgNWa-e8DmY-43" value="est émise pour" style="edgeLabel;html=1;align=center;verticalAlign=middle;resizable=0;points=[];" parent="1" vertex="1" connectable="0">
          <mxGeometry x="649.9970967741934" y="520" as="geometry">
            <mxPoint x="68" y="-5" as="offset" />
          </mxGeometry>
        </mxCell>
        <mxCell id="o44cOPp-4JualUAl15hT-5" value="" style="endArrow=none;html=1;rounded=0;exitX=0.312;exitY=0.02;exitDx=0;exitDy=0;exitPerimeter=0;" parent="1" source="4HMBv36Nge665kwI8IaE-1" edge="1">
          <mxGeometry width="50" height="50" relative="1" as="geometry">
            <mxPoint x="180" y="989" as="sourcePoint" />
            <mxPoint x="190" y="709" as="targetPoint" />
          </mxGeometry>
        </mxCell>
        <mxCell id="o44cOPp-4JualUAl15hT-6" value="" style="endArrow=none;dashed=1;html=1;dashPattern=1 3;strokeWidth=2;rounded=0;exitX=0.016;exitY=0.186;exitDx=0;exitDy=0;exitPerimeter=0;" parent="1" edge="1">
          <mxGeometry width="50" height="50" relative="1" as="geometry">
            <mxPoint x="348.1086399999999" y="774.836" as="sourcePoint" />
            <mxPoint x="190" y="773" as="targetPoint" />
          </mxGeometry>
        </mxCell>
        <mxCell id="o44cOPp-4JualUAl15hT-8" value="" style="endArrow=none;dashed=1;html=1;dashPattern=1 3;strokeWidth=2;rounded=0;entryX=1.002;entryY=1.579;entryDx=0;entryDy=0;entryPerimeter=0;" parent="1" target="Liz70xh0E30Ar9lDT0JQ-72" edge="1">
          <mxGeometry width="50" height="50" relative="1" as="geometry">
            <mxPoint x="189" y="849" as="sourcePoint" />
            <mxPoint x="330" y="735" as="targetPoint" />
          </mxGeometry>
        </mxCell>
        <mxCell id="o44cOPp-4JualUAl15hT-15" value="1..1" style="edgeLabel;html=1;align=center;verticalAlign=middle;resizable=0;points=[];" parent="1" vertex="1" connectable="0">
          <mxGeometry x="-420.0007142857138" y="750.9999999999999" as="geometry" />
        </mxCell>
        <mxCell id="o44cOPp-4JualUAl15hT-16" value="0..n" style="edgeLabel;html=1;align=center;verticalAlign=middle;resizable=0;points=[];" parent="1" vertex="1" connectable="0">
          <mxGeometry x="-447.0007142857138" y="844.9999999999999" as="geometry" />
        </mxCell>
        <mxCell id="o44cOPp-4JualUAl15hT-29" style="edgeStyle=orthogonalEdgeStyle;rounded=0;orthogonalLoop=1;jettySize=auto;html=1;exitX=1;exitY=0.5;exitDx=0;exitDy=0;endArrow=none;startFill=0;" parent="1" source="Liz70xh0E30Ar9lDT0JQ-90" edge="1">
          <mxGeometry relative="1" as="geometry">
            <mxPoint x="-969" y="738" as="targetPoint" />
          </mxGeometry>
        </mxCell>
        <mxCell id="o44cOPp-4JualUAl15hT-31" value="figure dans" style="edgeLabel;html=1;align=center;verticalAlign=middle;resizable=0;points=[];" parent="o44cOPp-4JualUAl15hT-29" vertex="1" connectable="0">
          <mxGeometry x="-0.8594" relative="1" as="geometry">
            <mxPoint x="13" y="-10" as="offset" />
          </mxGeometry>
        </mxCell>
        <mxCell id="o44cOPp-4JualUAl15hT-32" value="inclut" style="edgeLabel;html=1;align=center;verticalAlign=middle;resizable=0;points=[];" parent="1" vertex="1" connectable="0">
          <mxGeometry x="-989.9963157894738" y="724" as="geometry">
            <mxPoint x="1" y="3" as="offset" />
          </mxGeometry>
        </mxCell>
        <mxCell id="o44cOPp-4JualUAl15hT-33" value="0..n" style="edgeLabel;html=1;align=center;verticalAlign=middle;resizable=0;points=[];" parent="1" vertex="1" connectable="0">
          <mxGeometry x="-1008" y="729" as="geometry">
            <mxPoint x="25" y="17" as="offset" />
          </mxGeometry>
        </mxCell>
        <mxCell id="o44cOPp-4JualUAl15hT-34" value="1..n" style="edgeLabel;html=1;align=center;verticalAlign=middle;resizable=0;points=[];" parent="1" vertex="1" connectable="0">
          <mxGeometry x="-1218" y="729" as="geometry">
            <mxPoint x="25" y="17" as="offset" />
          </mxGeometry>
        </mxCell>
        <mxCell id="o44cOPp-4JualUAl15hT-35" style="edgeStyle=orthogonalEdgeStyle;rounded=0;orthogonalLoop=1;jettySize=auto;html=1;exitX=0;exitY=0.5;exitDx=0;exitDy=0;entryX=1;entryY=0.5;entryDx=0;entryDy=0;endArrow=none;startFill=0;" parent="1" source="BcY6Sn8Lkc4OsGFnqYsF-4" edge="1">
          <mxGeometry relative="1" as="geometry">
            <Array as="points">
              <mxPoint x="737" y="872" />
              <mxPoint x="539" y="872" />
            </Array>
            <mxPoint x="539.29" y="783" as="targetPoint" />
          </mxGeometry>
        </mxCell>
        <mxCell id="o44cOPp-4JualUAl15hT-36" value="prend en charge" style="edgeLabel;html=1;align=center;verticalAlign=middle;resizable=0;points=[];" parent="o44cOPp-4JualUAl15hT-35" vertex="1" connectable="0">
          <mxGeometry x="0.8103" relative="1" as="geometry">
            <mxPoint x="145" y="-11" as="offset" />
          </mxGeometry>
        </mxCell>
        <mxCell id="o44cOPp-4JualUAl15hT-37" value="nécessite" style="edgeLabel;html=1;align=center;verticalAlign=middle;resizable=0;points=[];" parent="1" vertex="1" connectable="0">
          <mxGeometry x="572.000158729259" y="858.0000000000002" as="geometry">
            <mxPoint x="-6" y="4" as="offset" />
          </mxGeometry>
        </mxCell>
        <mxCell id="o44cOPp-4JualUAl15hT-38" value="1..n" style="edgeLabel;html=1;align=center;verticalAlign=middle;resizable=0;points=[];" parent="1" vertex="1" connectable="0">
          <mxGeometry x="559.000158729259" y="878.0000000000002" as="geometry">
            <mxPoint x="-6" y="4" as="offset" />
          </mxGeometry>
        </mxCell>
        <mxCell id="o44cOPp-4JualUAl15hT-39" value="1..n" style="edgeLabel;html=1;align=center;verticalAlign=middle;resizable=0;points=[];" parent="1" vertex="1" connectable="0">
          <mxGeometry x="730.000158729259" y="878.0000000000002" as="geometry">
            <mxPoint x="-6" y="4" as="offset" />
          </mxGeometry>
        </mxCell>
        <mxCell id="o44cOPp-4JualUAl15hT-40" value="Locaux" style="swimlane;fontStyle=1;align=center;verticalAlign=top;childLayout=stackLayout;horizontal=1;startSize=26;horizontalStack=0;resizeParent=1;resizeLast=0;collapsible=1;marginBottom=0;rounded=0;shadow=0;strokeWidth=1;" parent="1" vertex="1">
          <mxGeometry x="137.85000000000002" y="39" width="194.29" height="160" as="geometry">
            <mxRectangle x="550" y="140" width="160" height="26" as="alternateBounds" />
          </mxGeometry>
        </mxCell>
        <mxCell id="o44cOPp-4JualUAl15hT-41" value="id_locaux: int" style="text;align=left;verticalAlign=top;spacingLeft=4;spacingRight=4;overflow=hidden;rotatable=0;points=[[0,0.5],[1,0.5]];portConstraint=eastwest;rounded=0;shadow=0;html=0;fontStyle=4" parent="o44cOPp-4JualUAl15hT-40" vertex="1">
          <mxGeometry y="26" width="194.29" height="18" as="geometry" />
        </mxCell>
        <mxCell id="o44cOPp-4JualUAl15hT-42" value="localisation: String" style="text;align=left;verticalAlign=top;spacingLeft=4;spacingRight=4;overflow=hidden;rotatable=0;points=[[0,0.5],[1,0.5]];portConstraint=eastwest;rounded=0;shadow=0;html=0;" parent="o44cOPp-4JualUAl15hT-40" vertex="1">
          <mxGeometry y="44" width="194.29" height="26" as="geometry" />
        </mxCell>
        <mxCell id="o44cOPp-4JualUAl15hT-46" value="fonctions: String" style="text;align=left;verticalAlign=top;spacingLeft=4;spacingRight=4;overflow=hidden;rotatable=0;points=[[0,0.5],[1,0.5]];portConstraint=eastwest;rounded=0;shadow=0;html=0;" parent="o44cOPp-4JualUAl15hT-40" vertex="1">
          <mxGeometry y="70" width="194.29" height="26" as="geometry" />
        </mxCell>
        <mxCell id="o44cOPp-4JualUAl15hT-47" value="" style="html=1;verticalAlign=bottom;endArrow=block;curved=0;rounded=0;exitX=0.5;exitY=0;exitDx=0;exitDy=0;endFill=0;strokeWidth=1;jumpSize=10;fontSize=10;endSize=14;entryX=0.25;entryY=1;entryDx=0;entryDy=0;" parent="1" source="Liz70xh0E30Ar9lDT0JQ-15" target="o44cOPp-4JualUAl15hT-40" edge="1">
          <mxGeometry width="80" relative="1" as="geometry">
            <mxPoint x="705" y="270" as="sourcePoint" />
            <mxPoint x="585" y="180" as="targetPoint" />
          </mxGeometry>
        </mxCell>
        <mxCell id="o44cOPp-4JualUAl15hT-48" value="" style="html=1;verticalAlign=bottom;endArrow=block;curved=0;rounded=0;endFill=0;strokeWidth=1;jumpSize=10;fontSize=10;endSize=14;exitX=0.5;exitY=0;exitDx=0;exitDy=0;" parent="1" source="o44cOPp-4JualUAl15hT-49" edge="1">
          <mxGeometry width="80" relative="1" as="geometry">
            <mxPoint x="790" y="250" as="sourcePoint" />
            <mxPoint x="260" y="199" as="targetPoint" />
          </mxGeometry>
        </mxCell>
        <mxCell id="o44cOPp-4JualUAl15hT-49" value="Stockage" style="swimlane;fontStyle=1;align=center;verticalAlign=top;childLayout=stackLayout;horizontal=1;startSize=26;horizontalStack=0;resizeParent=1;resizeLast=0;collapsible=1;marginBottom=0;rounded=0;shadow=0;strokeWidth=1;" parent="1" vertex="1">
          <mxGeometry x="542.56" y="244.01" width="194.29" height="90" as="geometry">
            <mxRectangle x="550" y="140" width="160" height="26" as="alternateBounds" />
          </mxGeometry>
        </mxCell>
        <mxCell id="o44cOPp-4JualUAl15hT-52" value="description: TEXT/CLOB" style="text;align=left;verticalAlign=top;spacingLeft=4;spacingRight=4;overflow=hidden;rotatable=0;points=[[0,0.5],[1,0.5]];portConstraint=eastwest;rounded=0;shadow=0;html=0;" parent="o44cOPp-4JualUAl15hT-49" vertex="1">
          <mxGeometry y="26" width="194.29" height="26" as="geometry" />
        </mxCell>
        <mxCell id="o44cOPp-4JualUAl15hT-58" value="émane de" style="edgeLabel;html=1;align=center;verticalAlign=middle;resizable=0;points=[];" parent="1" vertex="1" connectable="0">
          <mxGeometry x="-740.9983017315278" y="758" as="geometry">
            <mxPoint x="-6" y="1" as="offset" />
          </mxGeometry>
        </mxCell>
        <mxCell id="o44cOPp-4JualUAl15hT-60" value="1..1" style="edgeLabel;html=1;align=center;verticalAlign=middle;resizable=0;points=[];" parent="1" vertex="1" connectable="0">
          <mxGeometry x="-760.0010603522172" y="751" as="geometry">
            <mxPoint x="108" y="-18" as="offset" />
          </mxGeometry>
        </mxCell>
        <mxCell id="LIPTSqcopBgNWa-e8DmY-30" style="edgeStyle=orthogonalEdgeStyle;rounded=0;orthogonalLoop=1;jettySize=auto;html=1;endArrow=diamond;startFill=0;endFill=1;exitX=1;exitY=0.5;exitDx=0;exitDy=0;entryX=0;entryY=0.5;entryDx=0;entryDy=0;endSize=11;" parent="1" source="o44cOPp-4JualUAl15hT-46" edge="1">
          <mxGeometry relative="1" as="geometry">
            <Array as="points">
              <mxPoint x="332" y="118" />
            </Array>
            <mxPoint x="533.0500000000002" y="118.00000000000023" as="targetPoint" />
          </mxGeometry>
        </mxCell>
        <mxCell id="o44cOPp-4JualUAl15hT-61" style="edgeStyle=orthogonalEdgeStyle;rounded=0;orthogonalLoop=1;jettySize=auto;html=1;exitX=0;exitY=0.5;exitDx=0;exitDy=0;endArrow=none;endFill=0;endSize=9;startFill=0;" parent="1" source="Liz70xh0E30Ar9lDT0JQ-34" edge="1">
          <mxGeometry relative="1" as="geometry">
            <mxPoint x="728" y="89" as="targetPoint" />
            <Array as="points">
              <mxPoint x="728" y="89" />
            </Array>
          </mxGeometry>
        </mxCell>
        <mxCell id="o44cOPp-4JualUAl15hT-62" value="1..n" style="edgeLabel;html=1;align=center;verticalAlign=middle;resizable=0;points=[];" parent="1" vertex="1" connectable="0">
          <mxGeometry x="1048.00438955553" y="90.99637750591216" as="geometry">
            <mxPoint x="-128" y="-12" as="offset" />
          </mxGeometry>
        </mxCell>
        <mxCell id="o44cOPp-4JualUAl15hT-63" style="edgeStyle=orthogonalEdgeStyle;rounded=0;orthogonalLoop=1;jettySize=auto;html=1;endArrow=diamond;endFill=0;endSize=9;exitX=-0.004;exitY=0.784;exitDx=0;exitDy=0;exitPerimeter=0;" parent="1" edge="1">
          <mxGeometry relative="1" as="geometry">
            <mxPoint x="933.3528399999996" y="149.3839999999998" as="sourcePoint" />
            <mxPoint x="728" y="149" as="targetPoint" />
            <Array as="points">
              <mxPoint x="928" y="149" />
            </Array>
          </mxGeometry>
        </mxCell>
        <mxCell id="o44cOPp-4JualUAl15hT-65" value="0..n" style="edgeLabel;html=1;align=center;verticalAlign=middle;resizable=0;points=[];" parent="1" vertex="1" connectable="0">
          <mxGeometry x="1047.00438955553" y="150.99637750591216" as="geometry">
            <mxPoint x="-128" y="-12" as="offset" />
          </mxGeometry>
        </mxCell>
        <mxCell id="7o93KteqJOj9gGcoL91B-1" style="edgeStyle=orthogonalEdgeStyle;rounded=0;orthogonalLoop=1;jettySize=auto;html=1;endArrow=none;startFill=0;startArrow=none;entryX=0.001;entryY=0.458;entryDx=0;entryDy=0;entryPerimeter=0;" parent="1" edge="1">
          <mxGeometry relative="1" as="geometry">
            <Array as="points">
              <mxPoint x="-436" y="650" />
              <mxPoint x="80" y="650" />
            </Array>
            <mxPoint x="-435.71" y="671" as="sourcePoint" />
            <mxPoint x="80.23999999999978" y="644.9080000000001" as="targetPoint" />
          </mxGeometry>
        </mxCell>
        <mxCell id="7o93KteqJOj9gGcoL91B-2" value="1..n" style="edgeLabel;html=1;align=center;verticalAlign=middle;resizable=0;points=[];" parent="7o93KteqJOj9gGcoL91B-1" vertex="1" connectable="0">
          <mxGeometry x="-0.9504" y="9" relative="1" as="geometry">
            <mxPoint x="21" y="-17" as="offset" />
          </mxGeometry>
        </mxCell>
        <mxCell id="7o93KteqJOj9gGcoL91B-3" value="1..1" style="edgeLabel;html=1;align=center;verticalAlign=middle;resizable=0;points=[];" parent="7o93KteqJOj9gGcoL91B-1" vertex="1" connectable="0">
          <mxGeometry x="0.9198" y="4" relative="1" as="geometry">
            <mxPoint x="3" y="-6" as="offset" />
          </mxGeometry>
        </mxCell>
        <mxCell id="7o93KteqJOj9gGcoL91B-4" value="peut avoir" style="edgeLabel;html=1;align=center;verticalAlign=middle;resizable=0;points=[];" parent="1" vertex="1" connectable="0">
          <mxGeometry x="47.99709677419338" y="660" as="geometry">
            <mxPoint x="3" as="offset" />
          </mxGeometry>
        </mxCell>
        <mxCell id="7o93KteqJOj9gGcoL91B-5" value="concerne " style="edgeLabel;html=1;align=center;verticalAlign=middle;resizable=0;points=[];" parent="1" vertex="1" connectable="0">
          <mxGeometry x="-414.0029032258066" y="660" as="geometry">
            <mxPoint x="3" as="offset" />
          </mxGeometry>
        </mxCell>
        <mxCell id="7o93KteqJOj9gGcoL91B-7" value="Antécédents" style="swimlane;fontStyle=1;align=center;verticalAlign=top;childLayout=stackLayout;horizontal=1;startSize=26;horizontalStack=0;resizeParent=1;resizeLast=0;collapsible=1;marginBottom=0;rounded=0;shadow=0;strokeWidth=1;" parent="1" vertex="1">
          <mxGeometry x="-781" y="284" width="194.29" height="106" as="geometry">
            <mxRectangle x="550" y="140" width="160" height="26" as="alternateBounds" />
          </mxGeometry>
        </mxCell>
        <mxCell id="7o93KteqJOj9gGcoL91B-8" value="id_antécédents: int" style="text;align=left;verticalAlign=top;spacingLeft=4;spacingRight=4;overflow=hidden;rotatable=0;points=[[0,0.5],[1,0.5]];portConstraint=eastwest;rounded=0;shadow=0;html=0;fontStyle=4;fontFamily=Helvetica;fontSize=12;fontColor=default;" parent="7o93KteqJOj9gGcoL91B-7" vertex="1">
          <mxGeometry y="26" width="194.29" height="24" as="geometry" />
        </mxCell>
        <mxCell id="7o93KteqJOj9gGcoL91B-10" value="description: TEXT/CLOB" style="text;align=left;verticalAlign=top;spacingLeft=4;spacingRight=4;overflow=hidden;rotatable=0;points=[[0,0.5],[1,0.5]];portConstraint=eastwest;rounded=0;shadow=0;html=0;" parent="7o93KteqJOj9gGcoL91B-7" vertex="1">
          <mxGeometry y="50" width="194.29" height="26" as="geometry" />
        </mxCell>
        <mxCell id="7o93KteqJOj9gGcoL91B-16" value="0..n" style="edgeLabel;html=1;align=center;verticalAlign=middle;resizable=0;points=[];" parent="1" vertex="1" connectable="0">
          <mxGeometry x="-444.7056104444699" y="324.00637750591216" as="geometry">
            <mxPoint x="-128" y="-12" as="offset" />
          </mxGeometry>
        </mxCell>
        <mxCell id="7o93KteqJOj9gGcoL91B-17" value="est associé à" style="edgeLabel;html=1;align=center;verticalAlign=middle;resizable=0;points=[];" parent="1" vertex="1" connectable="0">
          <mxGeometry x="-342.7056104444704" y="334.00637750591216" as="geometry">
            <mxPoint x="-11" y="-3" as="offset" />
          </mxGeometry>
        </mxCell>
        <mxCell id="7o93KteqJOj9gGcoL91B-18" value="est inclus dans" style="edgeLabel;html=1;align=center;verticalAlign=middle;resizable=0;points=[];" parent="1" vertex="1" connectable="0">
          <mxGeometry x="-548.7056104444704" y="331.00637750591216" as="geometry" />
        </mxCell>
        <mxCell id="7o93KteqJOj9gGcoL91B-21" value="Contact" style="swimlane;fontStyle=1;align=center;verticalAlign=top;childLayout=stackLayout;horizontal=1;startSize=26;horizontalStack=0;resizeParent=1;resizeLast=0;collapsible=1;marginBottom=0;rounded=0;shadow=0;strokeWidth=1;" parent="1" vertex="1">
          <mxGeometry x="-314.29" y="414" width="194.29" height="202" as="geometry">
            <mxRectangle x="550" y="140" width="160" height="26" as="alternateBounds" />
          </mxGeometry>
        </mxCell>
        <mxCell id="7o93KteqJOj9gGcoL91B-22" value="id_contact: int" style="text;align=left;verticalAlign=top;spacingLeft=4;spacingRight=4;overflow=hidden;rotatable=0;points=[[0,0.5],[1,0.5]];portConstraint=eastwest;rounded=0;shadow=0;html=0;fontStyle=4;fontFamily=Helvetica;fontSize=12;fontColor=default;" parent="7o93KteqJOj9gGcoL91B-21" vertex="1">
          <mxGeometry y="26" width="194.29" height="24" as="geometry" />
        </mxCell>
        <mxCell id="7o93KteqJOj9gGcoL91B-32" value="adresse: String" style="text;align=left;verticalAlign=top;spacingLeft=4;spacingRight=4;overflow=hidden;rotatable=0;points=[[0,0.5],[1,0.5]];portConstraint=eastwest;rounded=0;shadow=0;html=0;fontStyle=0;fontFamily=Helvetica;fontSize=12;fontColor=default;" parent="7o93KteqJOj9gGcoL91B-21" vertex="1">
          <mxGeometry y="50" width="194.29" height="24" as="geometry" />
        </mxCell>
        <mxCell id="7o93KteqJOj9gGcoL91B-33" value="téléphone: String" style="text;align=left;verticalAlign=top;spacingLeft=4;spacingRight=4;overflow=hidden;rotatable=0;points=[[0,0.5],[1,0.5]];portConstraint=eastwest;rounded=0;shadow=0;html=0;fontStyle=0;fontFamily=Helvetica;fontSize=12;fontColor=default;" parent="7o93KteqJOj9gGcoL91B-21" vertex="1">
          <mxGeometry y="74" width="194.29" height="24" as="geometry" />
        </mxCell>
        <mxCell id="7o93KteqJOj9gGcoL91B-34" value="num_assurance: String" style="text;align=left;verticalAlign=top;spacingLeft=4;spacingRight=4;overflow=hidden;rotatable=0;points=[[0,0.5],[1,0.5]];portConstraint=eastwest;rounded=0;shadow=0;html=0;fontStyle=0;fontFamily=Helvetica;fontSize=12;fontColor=default;" parent="7o93KteqJOj9gGcoL91B-21" vertex="1">
          <mxGeometry y="98" width="194.29" height="24" as="geometry" />
        </mxCell>
        <mxCell id="7o93KteqJOj9gGcoL91B-26" value="1..n" style="edgeLabel;html=1;align=center;verticalAlign=middle;resizable=0;points=[];" parent="1" vertex="1" connectable="0">
          <mxGeometry x="21.004389555530125" y="494.99637750591216" as="geometry">
            <mxPoint x="-128" y="-12" as="offset" />
          </mxGeometry>
        </mxCell>
        <mxCell id="7o93KteqJOj9gGcoL91B-27" value="est joignable par" style="edgeLabel;html=1;align=center;verticalAlign=middle;resizable=0;points=[];" parent="1" vertex="1" connectable="0">
          <mxGeometry x="47.004389555529684" y="507.99637750591216" as="geometry">
            <mxPoint x="-11" y="-3" as="offset" />
          </mxGeometry>
        </mxCell>
        <mxCell id="7o93KteqJOj9gGcoL91B-28" value="réfère à" style="edgeLabel;html=1;align=center;verticalAlign=middle;resizable=0;points=[];" parent="1" vertex="1" connectable="0">
          <mxGeometry x="-102.99561044447032" y="505.99637750591216" as="geometry">
            <mxPoint x="4" y="-1" as="offset" />
          </mxGeometry>
        </mxCell>
        <mxCell id="_ER0I4ydUNnLppPdNXpL-4" style="edgeStyle=orthogonalEdgeStyle;rounded=0;orthogonalLoop=1;jettySize=auto;html=1;endArrow=diamond;endFill=1;endSize=17;" parent="1" edge="1">
          <mxGeometry relative="1" as="geometry">
            <Array as="points">
              <mxPoint x="-120" y="490" />
              <mxPoint x="-120" y="490" />
              <mxPoint x="-120" y="491" />
            </Array>
            <mxPoint x="80" y="491.25" as="targetPoint" />
            <mxPoint x="-120" y="490" as="sourcePoint" />
          </mxGeometry>
        </mxCell>
        <mxCell id="_ER0I4ydUNnLppPdNXpL-7" value="1..1" style="edgeLabel;html=1;align=center;verticalAlign=middle;resizable=0;points=[];" parent="1" vertex="1" connectable="0">
          <mxGeometry x="180.0043895555301" y="492.24637750591216" as="geometry">
            <mxPoint x="-128" y="-12" as="offset" />
          </mxGeometry>
        </mxCell>
        <mxCell id="qItokQ1toajGmqyx5oMd-1" style="edgeStyle=orthogonalEdgeStyle;rounded=0;orthogonalLoop=1;jettySize=auto;html=1;endArrow=diamond;endFill=0;endSize=9;exitX=1;exitY=0.5;exitDx=0;exitDy=0;" parent="1" edge="1">
          <mxGeometry relative="1" as="geometry">
            <mxPoint x="-586.71" y="311" as="sourcePoint" />
            <mxPoint x="-314.28999999999996" y="322" as="targetPoint" />
            <Array as="points">
              <mxPoint x="-587" y="322" />
            </Array>
          </mxGeometry>
        </mxCell>
        <mxCell id="qItokQ1toajGmqyx5oMd-2" value="1..1" style="edgeLabel;html=1;align=center;verticalAlign=middle;resizable=0;points=[];" parent="1" vertex="1" connectable="0">
          <mxGeometry x="-334.4159564069205" y="310.0005694625049" as="geometry" />
        </mxCell>
        <mxCell id="rXW6S8lit_6Dd6Ylpq4T-8" value="Assurance" style="swimlane;fontStyle=1;align=center;verticalAlign=top;childLayout=stackLayout;horizontal=1;startSize=26;horizontalStack=0;resizeParent=1;resizeLast=0;collapsible=1;marginBottom=0;rounded=0;shadow=0;strokeWidth=1;" parent="1" vertex="1">
          <mxGeometry x="1096.35" y="424.5" width="194.29" height="135.5" as="geometry">
            <mxRectangle x="550" y="140" width="160" height="26" as="alternateBounds" />
          </mxGeometry>
        </mxCell>
        <mxCell id="rXW6S8lit_6Dd6Ylpq4T-9" value="id_assurance: int" style="text;align=left;verticalAlign=top;spacingLeft=4;spacingRight=4;overflow=hidden;rotatable=0;points=[[0,0.5],[1,0.5]];portConstraint=eastwest;rounded=0;shadow=0;html=0;fontStyle=4" parent="rXW6S8lit_6Dd6Ylpq4T-8" vertex="1">
          <mxGeometry y="26" width="194.29" height="18" as="geometry" />
        </mxCell>
        <mxCell id="rXW6S8lit_6Dd6Ylpq4T-10" value="montant: float" style="text;align=left;verticalAlign=top;spacingLeft=4;spacingRight=4;overflow=hidden;rotatable=0;points=[[0,0.5],[1,0.5]];portConstraint=eastwest;rounded=0;shadow=0;html=0;" parent="rXW6S8lit_6Dd6Ylpq4T-8" vertex="1">
          <mxGeometry y="44" width="194.29" height="26" as="geometry" />
        </mxCell>
        <mxCell id="rXW6S8lit_6Dd6Ylpq4T-11" value="date: DateTime" style="text;align=left;verticalAlign=top;spacingLeft=4;spacingRight=4;overflow=hidden;rotatable=0;points=[[0,0.5],[1,0.5]];portConstraint=eastwest;rounded=0;shadow=0;html=0;" parent="rXW6S8lit_6Dd6Ylpq4T-8" vertex="1">
          <mxGeometry y="70" width="194.29" height="26" as="geometry" />
        </mxCell>
        <mxCell id="rXW6S8lit_6Dd6Ylpq4T-13" value="1..1" style="edgeLabel;html=1;align=center;verticalAlign=middle;resizable=0;points=[];" parent="1" vertex="1" connectable="0">
          <mxGeometry x="1081.3766448320466" y="485" as="geometry" />
        </mxCell>
        <mxCell id="rXW6S8lit_6Dd6Ylpq4T-14" value="" style="endArrow=none;html=1;rounded=0;entryX=0;entryY=0.989;entryDx=0;entryDy=0;entryPerimeter=0;" parent="1" target="rXW6S8lit_6Dd6Ylpq4T-10" edge="1">
          <mxGeometry width="50" height="50" relative="1" as="geometry">
            <mxPoint x="958" y="494" as="sourcePoint" />
            <mxPoint x="1009" y="540" as="targetPoint" />
          </mxGeometry>
        </mxCell>
        <mxCell id="rXW6S8lit_6Dd6Ylpq4T-15" value="est émise pour" style="edgeLabel;html=1;align=center;verticalAlign=middle;resizable=0;points=[];" parent="1" vertex="1" connectable="0">
          <mxGeometry x="983.9970967741933" y="508" as="geometry">
            <mxPoint x="68" y="-5" as="offset" />
          </mxGeometry>
        </mxCell>
      </root>
    </mxGraphModel>
  </diagram>
  <diagram id="vfOFxiVTFta1VzeJZyCZ" name="modèle_relationnel">
    <mxGraphModel dx="3527" dy="1468" grid="1" gridSize="10" guides="1" tooltips="1" connect="1" arrows="1" fold="1" page="1" pageScale="1" pageWidth="1169" pageHeight="827" math="0" shadow="0">
      <root>
        <mxCell id="0" />
        <mxCell id="1" parent="0" />
        <mxCell id="uPuDeAvWnkZBqjxd4NfP-1" value="Patient" style="swimlane;fontStyle=1;align=center;verticalAlign=top;childLayout=stackLayout;horizontal=1;startSize=26;horizontalStack=0;resizeParent=1;resizeLast=0;collapsible=1;marginBottom=0;rounded=0;shadow=0;strokeWidth=1;" parent="1" vertex="1">
          <mxGeometry x="80" y="120" width="240" height="540" as="geometry">
            <mxRectangle x="550" y="140" width="160" height="26" as="alternateBounds" />
          </mxGeometry>
        </mxCell>
        <mxCell id="uPuDeAvWnkZBqjxd4NfP-2" value="id_patient: INT                                       &lt;pk&gt;" style="text;align=left;verticalAlign=top;spacingLeft=4;spacingRight=4;overflow=hidden;rotatable=0;points=[[0,0.5],[1,0.5]];portConstraint=eastwest;fontStyle=4" parent="uPuDeAvWnkZBqjxd4NfP-1" vertex="1">
          <mxGeometry y="26" width="240" height="26" as="geometry" />
        </mxCell>
        <mxCell id="uPuDeAvWnkZBqjxd4NfP-3" value="NomComplet : VARCHAR(50)" style="text;strokeColor=none;fillColor=none;align=left;verticalAlign=top;spacingLeft=4;spacingRight=4;overflow=hidden;rotatable=0;points=[[0,0.5],[1,0.5]];portConstraint=eastwest;whiteSpace=wrap;html=1;" parent="uPuDeAvWnkZBqjxd4NfP-1" vertex="1">
          <mxGeometry y="52" width="240" height="26" as="geometry" />
        </mxCell>
        <mxCell id="uPuDeAvWnkZBqjxd4NfP-5" value="date&lt;span style=&quot;background-color: transparent; color: light-dark(rgb(0, 0, 0), rgb(255, 255, 255));&quot;&gt;_naissance: DATE&lt;/span&gt;" style="text;strokeColor=none;fillColor=none;align=left;verticalAlign=top;spacingLeft=4;spacingRight=4;overflow=hidden;rotatable=0;points=[[0,0.5],[1,0.5]];portConstraint=eastwest;whiteSpace=wrap;html=1;" parent="uPuDeAvWnkZBqjxd4NfP-1" vertex="1">
          <mxGeometry y="78" width="240" height="26" as="geometry" />
        </mxCell>
        <mxCell id="uPuDeAvWnkZBqjxd4NfP-6" value="sexe: char" style="text;strokeColor=none;fillColor=none;align=left;verticalAlign=top;spacingLeft=4;spacingRight=4;overflow=hidden;rotatable=0;points=[[0,0.5],[1,0.5]];portConstraint=eastwest;whiteSpace=wrap;html=1;" parent="uPuDeAvWnkZBqjxd4NfP-1" vertex="1">
          <mxGeometry y="104" width="240" height="26" as="geometry" />
        </mxCell>
        <mxCell id="uPuDeAvWnkZBqjxd4NfP-7" value="adresse: VARCHAR(50)" style="text;strokeColor=none;fillColor=none;align=left;verticalAlign=top;spacingLeft=4;spacingRight=4;overflow=hidden;rotatable=0;points=[[0,0.5],[1,0.5]];portConstraint=eastwest;whiteSpace=wrap;html=1;" parent="uPuDeAvWnkZBqjxd4NfP-1" vertex="1">
          <mxGeometry y="130" width="240" height="26" as="geometry" />
        </mxCell>
        <mxCell id="uPuDeAvWnkZBqjxd4NfP-8" value="téléphone: VARCHAR(50)" style="text;strokeColor=none;fillColor=none;align=left;verticalAlign=top;spacingLeft=4;spacingRight=4;overflow=hidden;rotatable=0;points=[[0,0.5],[1,0.5]];portConstraint=eastwest;whiteSpace=wrap;html=1;" parent="uPuDeAvWnkZBqjxd4NfP-1" vertex="1">
          <mxGeometry y="156" width="240" height="26" as="geometry" />
        </mxCell>
        <mxCell id="uPuDeAvWnkZBqjxd4NfP-10" value="langue: VARCHAR(50)" style="text;align=left;verticalAlign=top;spacingLeft=4;spacingRight=4;overflow=hidden;rotatable=0;points=[[0,0.5],[1,0.5]];portConstraint=eastwest;rounded=0;shadow=0;html=0;" parent="uPuDeAvWnkZBqjxd4NfP-1" vertex="1">
          <mxGeometry y="182" width="240" height="26" as="geometry" />
        </mxCell>
        <mxCell id="uPuDeAvWnkZBqjxd4NfP-11" value="hospitalise: Char" style="text;align=left;verticalAlign=top;spacingLeft=4;spacingRight=4;overflow=hidden;rotatable=0;points=[[0,0.5],[1,0.5]];portConstraint=eastwest;rounded=0;shadow=0;html=0;" parent="uPuDeAvWnkZBqjxd4NfP-1" vertex="1">
          <mxGeometry y="208" width="240" height="26" as="geometry" />
        </mxCell>
        <mxCell id="uPuDeAvWnkZBqjxd4NfP-16" value="Personnel" style="swimlane;fontStyle=1;align=center;verticalAlign=top;childLayout=stackLayout;horizontal=1;startSize=26;horizontalStack=0;resizeParent=1;resizeLast=0;collapsible=1;marginBottom=0;rounded=0;shadow=0;strokeWidth=1;" parent="1" vertex="1">
          <mxGeometry x="1134" y="616" width="194.29" height="314" as="geometry">
            <mxRectangle x="550" y="140" width="160" height="26" as="alternateBounds" />
          </mxGeometry>
        </mxCell>
        <mxCell id="uPuDeAvWnkZBqjxd4NfP-17" value="id_personnel: INT                                       &lt;pk&gt;" style="text;align=left;verticalAlign=top;spacingLeft=4;spacingRight=4;overflow=hidden;rotatable=0;points=[[0,0.5],[1,0.5]];portConstraint=eastwest;rounded=0;shadow=0;html=0;fontStyle=4" parent="uPuDeAvWnkZBqjxd4NfP-16" vertex="1">
          <mxGeometry y="26" width="194.29" height="18" as="geometry" />
        </mxCell>
        <mxCell id="uPuDeAvWnkZBqjxd4NfP-18" value="nom: VARCHAR(50)" style="text;align=left;verticalAlign=top;spacingLeft=4;spacingRight=4;overflow=hidden;rotatable=0;points=[[0,0.5],[1,0.5]];portConstraint=eastwest;rounded=0;shadow=0;html=0;" parent="uPuDeAvWnkZBqjxd4NfP-16" vertex="1">
          <mxGeometry y="44" width="194.29" height="20" as="geometry" />
        </mxCell>
        <mxCell id="uPuDeAvWnkZBqjxd4NfP-19" value="prenom: VARCHAR(50)" style="text;align=left;verticalAlign=top;spacingLeft=4;spacingRight=4;overflow=hidden;rotatable=0;points=[[0,0.5],[1,0.5]];portConstraint=eastwest;rounded=0;shadow=0;html=0;" parent="uPuDeAvWnkZBqjxd4NfP-16" vertex="1">
          <mxGeometry y="64" width="194.29" height="26" as="geometry" />
        </mxCell>
        <mxCell id="uPuDeAvWnkZBqjxd4NfP-20" value="DATE_embauche: DATE" style="text;align=left;verticalAlign=top;spacingLeft=4;spacingRight=4;overflow=hidden;rotatable=0;points=[[0,0.5],[1,0.5]];portConstraint=eastwest;rounded=0;shadow=0;html=0;" parent="uPuDeAvWnkZBqjxd4NfP-16" vertex="1">
          <mxGeometry y="90" width="194.29" height="26" as="geometry" />
        </mxCell>
        <mxCell id="uPuDeAvWnkZBqjxd4NfP-21" value="salaire: FLOAT" style="text;align=left;verticalAlign=top;spacingLeft=4;spacingRight=4;overflow=hidden;rotatable=0;points=[[0,0.5],[1,0.5]];portConstraint=eastwest;rounded=0;shadow=0;html=0;" parent="uPuDeAvWnkZBqjxd4NfP-16" vertex="1">
          <mxGeometry y="116" width="194.29" height="26" as="geometry" />
        </mxCell>
        <mxCell id="uPuDeAvWnkZBqjxd4NfP-22" value="affectation_specialite: VARCHAR(50)" style="text;align=left;verticalAlign=top;spacingLeft=4;spacingRight=4;overflow=hidden;rotatable=0;points=[[0,0.5],[1,0.5]];portConstraint=eastwest;rounded=0;shadow=0;html=0;" parent="uPuDeAvWnkZBqjxd4NfP-16" vertex="1">
          <mxGeometry y="142" width="194.29" height="26" as="geometry" />
        </mxCell>
        <mxCell id="uPuDeAvWnkZBqjxd4NfP-25" value="langue: VARCHAR(50)" style="text;align=left;verticalAlign=top;spacingLeft=4;spacingRight=4;overflow=hidden;rotatable=0;points=[[0,0.5],[1,0.5]];portConstraint=eastwest;rounded=0;shadow=0;html=0;" parent="uPuDeAvWnkZBqjxd4NfP-16" vertex="1">
          <mxGeometry y="168" width="194.29" height="30" as="geometry" />
        </mxCell>
        <mxCell id="uPuDeAvWnkZBqjxd4NfP-26" value="responsable: VARCHAR(50)" style="text;align=left;verticalAlign=top;spacingLeft=4;spacingRight=4;overflow=hidden;rotatable=0;points=[[0,0.5],[1,0.5]];portConstraint=eastwest;rounded=0;shadow=0;html=0;" parent="uPuDeAvWnkZBqjxd4NfP-16" vertex="1">
          <mxGeometry y="198" width="194.29" height="30" as="geometry" />
        </mxCell>
        <mxCell id="uPuDeAvWnkZBqjxd4NfP-28" value="Médecin" style="swimlane;fontStyle=1;align=center;verticalAlign=top;childLayout=stackLayout;horizontal=1;startSize=26;horizontalStack=0;resizeParent=1;resizeLast=0;collapsible=1;marginBottom=0;rounded=0;shadow=0;strokeWidth=1;" parent="1" vertex="1">
          <mxGeometry x="128.85" y="1224" width="194.29" height="100" as="geometry">
            <mxRectangle x="550" y="140" width="160" height="26" as="alternateBounds" />
          </mxGeometry>
        </mxCell>
        <mxCell id="uPuDeAvWnkZBqjxd4NfP-29" value="id_personnel: INT &lt;pk, fk&gt;" style="text;align=left;verticalAlign=top;spacingLeft=4;spacingRight=4;overflow=hidden;rotatable=0;points=[[0,0.5],[1,0.5]];portConstraint=eastwest;rounded=0;shadow=0;html=0;fontStyle=4" parent="uPuDeAvWnkZBqjxd4NfP-28" vertex="1">
          <mxGeometry y="26" width="194.29" height="18" as="geometry" />
        </mxCell>
        <mxCell id="uPuDeAvWnkZBqjxd4NfP-30" value="num_licence: VARCHAR(50)" style="text;align=left;verticalAlign=top;spacingLeft=4;spacingRight=4;overflow=hidden;rotatable=0;points=[[0,0.5],[1,0.5]];portConstraint=eastwest;rounded=0;shadow=0;html=0;" parent="uPuDeAvWnkZBqjxd4NfP-28" vertex="1">
          <mxGeometry y="44" width="194.29" height="26" as="geometry" />
        </mxCell>
        <mxCell id="uPuDeAvWnkZBqjxd4NfP-32" value="" style="html=1;verticalAlign=bottom;endArrow=block;curved=0;rounded=0;exitX=1;exitY=0.5;exitDx=0;exitDy=0;endFill=1;strokeWidth=1;jumpSize=10;fontSize=10;endSize=14;entryX=0.25;entryY=1;entryDx=0;entryDy=0;" parent="1" source="uPuDeAvWnkZBqjxd4NfP-29" target="uPuDeAvWnkZBqjxd4NfP-16" edge="1">
          <mxGeometry width="80" relative="1" as="geometry">
            <mxPoint x="630" y="1084" as="sourcePoint" />
            <mxPoint x="1110" y="939" as="targetPoint" />
          </mxGeometry>
        </mxCell>
        <mxCell id="uPuDeAvWnkZBqjxd4NfP-33" value="Infirmier" style="swimlane;fontStyle=1;align=center;verticalAlign=top;childLayout=stackLayout;horizontal=1;startSize=26;horizontalStack=0;resizeParent=1;resizeLast=0;collapsible=1;marginBottom=0;rounded=0;shadow=0;strokeWidth=1;" parent="1" vertex="1">
          <mxGeometry x="871.85" y="824" width="194.29" height="90" as="geometry">
            <mxRectangle x="550" y="140" width="160" height="26" as="alternateBounds" />
          </mxGeometry>
        </mxCell>
        <mxCell id="uPuDeAvWnkZBqjxd4NfP-34" value="id_personnel: INT &lt;pk, fk&gt;" style="text;align=left;verticalAlign=top;spacingLeft=4;spacingRight=4;overflow=hidden;rotatable=0;points=[[0,0.5],[1,0.5]];portConstraint=eastwest;rounded=0;shadow=0;html=0;fontStyle=4" parent="uPuDeAvWnkZBqjxd4NfP-33" vertex="1">
          <mxGeometry y="26" width="194.29" height="18" as="geometry" />
        </mxCell>
        <mxCell id="uPuDeAvWnkZBqjxd4NfP-35" value="niveau_certification: VARCHAR(50)" style="text;align=left;verticalAlign=top;spacingLeft=4;spacingRight=4;overflow=hidden;rotatable=0;points=[[0,0.5],[1,0.5]];portConstraint=eastwest;rounded=0;shadow=0;html=0;" parent="uPuDeAvWnkZBqjxd4NfP-33" vertex="1">
          <mxGeometry y="44" width="194.29" height="20" as="geometry" />
        </mxCell>
        <mxCell id="uPuDeAvWnkZBqjxd4NfP-37" value="" style="html=1;verticalAlign=bottom;endArrow=block;curved=0;rounded=0;exitX=0.5;exitY=1;exitDx=0;exitDy=0;endFill=1;strokeWidth=1;jumpSize=10;fontSize=10;endSize=14;entryX=0;entryY=1;entryDx=0;entryDy=0;" parent="1" source="uPuDeAvWnkZBqjxd4NfP-33" target="uPuDeAvWnkZBqjxd4NfP-16" edge="1">
          <mxGeometry width="80" relative="1" as="geometry">
            <mxPoint x="892" y="1084" as="sourcePoint" />
            <mxPoint x="1065" y="959" as="targetPoint" />
          </mxGeometry>
        </mxCell>
        <mxCell id="uPuDeAvWnkZBqjxd4NfP-38" value="Intendance" style="swimlane;fontStyle=1;align=center;verticalAlign=top;childLayout=stackLayout;horizontal=1;startSize=26;horizontalStack=0;resizeParent=1;resizeLast=0;collapsible=1;marginBottom=0;rounded=0;shadow=0;strokeWidth=1;" parent="1" vertex="1">
          <mxGeometry x="1200" y="1070" width="194.29" height="110" as="geometry">
            <mxRectangle x="550" y="140" width="160" height="26" as="alternateBounds" />
          </mxGeometry>
        </mxCell>
        <mxCell id="uPuDeAvWnkZBqjxd4NfP-39" value="id_personnel: INT &lt;pk, fk&gt;" style="text;align=left;verticalAlign=top;spacingLeft=4;spacingRight=4;overflow=hidden;rotatable=0;points=[[0,0.5],[1,0.5]];portConstraint=eastwest;rounded=0;shadow=0;html=0;fontStyle=4" parent="uPuDeAvWnkZBqjxd4NfP-38" vertex="1">
          <mxGeometry y="26" width="194.29" height="18" as="geometry" />
        </mxCell>
        <mxCell id="uPuDeAvWnkZBqjxd4NfP-40" value="zone_attribuee: VARCHAR(50)" style="text;align=left;verticalAlign=top;spacingLeft=4;spacingRight=4;overflow=hidden;rotatable=0;points=[[0,0.5],[1,0.5]];portConstraint=eastwest;rounded=0;shadow=0;html=0;" parent="uPuDeAvWnkZBqjxd4NfP-38" vertex="1">
          <mxGeometry y="44" width="194.29" height="20" as="geometry" />
        </mxCell>
        <mxCell id="uPuDeAvWnkZBqjxd4NfP-41" value="fonction: VARCHAR(50)" style="text;align=left;verticalAlign=top;spacingLeft=4;spacingRight=4;overflow=hidden;rotatable=0;points=[[0,0.5],[1,0.5]];portConstraint=eastwest;rounded=0;shadow=0;html=0;" parent="uPuDeAvWnkZBqjxd4NfP-38" vertex="1">
          <mxGeometry y="64" width="194.29" height="20" as="geometry" />
        </mxCell>
        <mxCell id="uPuDeAvWnkZBqjxd4NfP-43" value="Profil médical" style="swimlane;fontStyle=1;align=center;verticalAlign=top;childLayout=stackLayout;horizontal=1;startSize=26;horizontalStack=0;resizeParent=1;resizeLast=0;collapsible=1;marginBottom=0;rounded=0;shadow=0;strokeWidth=1;" parent="1" vertex="1">
          <mxGeometry x="-314.29" y="94" width="194.29" height="150" as="geometry">
            <mxRectangle x="550" y="140" width="160" height="26" as="alternateBounds" />
          </mxGeometry>
        </mxCell>
        <mxCell id="uPuDeAvWnkZBqjxd4NfP-44" value="id_profil_médical: INT                                       &lt;pk&gt;" style="text;align=left;verticalAlign=top;spacingLeft=4;spacingRight=4;overflow=hidden;rotatable=0;points=[[0,0.5],[1,0.5]];portConstraint=eastwest;rounded=0;shadow=0;html=0;fontStyle=4;fontFamily=Helvetica;fontSize=12;fontColor=default;" parent="uPuDeAvWnkZBqjxd4NfP-43" vertex="1">
          <mxGeometry y="26" width="194.29" height="24" as="geometry" />
        </mxCell>
        <mxCell id="7A0WKfbmulLtPvkq2pHy-2" value="id_patient: INT &lt;fk&gt;" style="text;align=left;verticalAlign=top;spacingLeft=4;spacingRight=4;overflow=hidden;rotatable=0;points=[[0,0.5],[1,0.5]];portConstraint=eastwest;rounded=0;shadow=0;html=0;" parent="uPuDeAvWnkZBqjxd4NfP-43" vertex="1">
          <mxGeometry y="50" width="194.29" height="26" as="geometry" />
        </mxCell>
        <mxCell id="uPuDeAvWnkZBqjxd4NfP-49" value="Chambre" style="swimlane;fontStyle=1;align=center;verticalAlign=top;childLayout=stackLayout;horizontal=1;startSize=26;horizontalStack=0;resizeParent=1;resizeLast=0;collapsible=1;marginBottom=0;rounded=0;shadow=0;strokeWidth=1;" parent="1" vertex="1">
          <mxGeometry x="510" y="384" width="194.29" height="76" as="geometry">
            <mxRectangle x="550" y="140" width="160" height="26" as="alternateBounds" />
          </mxGeometry>
        </mxCell>
        <mxCell id="s0RCvchEiwmvVQxgQo0K-1" value="id_chambre: INT &lt;pk&gt;" style="text;align=left;verticalAlign=top;spacingLeft=4;spacingRight=4;overflow=hidden;rotatable=0;points=[[0,0.5],[1,0.5]];portConstraint=eastwest;rounded=0;shadow=0;html=0;fontStyle=4" parent="uPuDeAvWnkZBqjxd4NfP-49" vertex="1">
          <mxGeometry y="26" width="194.29" height="18" as="geometry" />
        </mxCell>
        <mxCell id="7qXbEy4_ou5uuq6s0Rbz-4" value="id_locaux: INT &lt;fk&gt;" style="text;align=left;verticalAlign=top;spacingLeft=4;spacingRight=4;overflow=hidden;rotatable=0;points=[[0,0.5],[1,0.5]];portConstraint=eastwest;rounded=0;shadow=0;html=0;fontStyle=0" parent="uPuDeAvWnkZBqjxd4NfP-49" vertex="1">
          <mxGeometry y="44" width="194.29" height="18" as="geometry" />
        </mxCell>
        <mxCell id="uPuDeAvWnkZBqjxd4NfP-53" value="Service" style="swimlane;fontStyle=1;align=center;verticalAlign=top;childLayout=stackLayout;horizontal=1;startSize=26;horizontalStack=0;resizeParent=1;resizeLast=0;collapsible=1;marginBottom=0;rounded=0;shadow=0;strokeWidth=1;" parent="1" vertex="1">
          <mxGeometry x="1105.05" y="-8" width="194.29" height="165" as="geometry">
            <mxRectangle x="550" y="140" width="160" height="26" as="alternateBounds" />
          </mxGeometry>
        </mxCell>
        <mxCell id="uPuDeAvWnkZBqjxd4NfP-54" value="id_service: INT                                       &lt;pk&gt;" style="text;align=left;verticalAlign=top;spacingLeft=4;spacingRight=4;overflow=hidden;rotatable=0;points=[[0,0.5],[1,0.5]];portConstraint=eastwest;rounded=0;shadow=0;html=0;fontStyle=4" parent="uPuDeAvWnkZBqjxd4NfP-53" vertex="1">
          <mxGeometry y="26" width="194.29" height="18" as="geometry" />
        </mxCell>
        <mxCell id="uPuDeAvWnkZBqjxd4NfP-55" value="nom: VARCHAR(50)" style="text;align=left;verticalAlign=top;spacingLeft=4;spacingRight=4;overflow=hidden;rotatable=0;points=[[0,0.5],[1,0.5]];portConstraint=eastwest;rounded=0;shadow=0;html=0;" parent="uPuDeAvWnkZBqjxd4NfP-53" vertex="1">
          <mxGeometry y="44" width="194.29" height="20" as="geometry" />
        </mxCell>
        <mxCell id="uPuDeAvWnkZBqjxd4NfP-56" value="id_equipement_origine: INT                                       &lt;fk&gt;" style="text;align=left;verticalAlign=top;spacingLeft=4;spacingRight=4;overflow=hidden;rotatable=0;points=[[0,0.5],[1,0.5]];portConstraint=eastwest;rounded=0;shadow=0;html=0;" parent="uPuDeAvWnkZBqjxd4NfP-53" vertex="1">
          <mxGeometry y="64" width="194.29" height="26" as="geometry" />
        </mxCell>
        <mxCell id="5y7UbijCCUDwTVZcs4Q2-1" value="id_equipement_attribué: INT                                       &lt;fk&gt;" style="text;align=left;verticalAlign=top;spacingLeft=4;spacingRight=4;overflow=hidden;rotatable=0;points=[[0,0.5],[1,0.5]];portConstraint=eastwest;rounded=0;shadow=0;html=0;" parent="uPuDeAvWnkZBqjxd4NfP-53" vertex="1">
          <mxGeometry y="90" width="194.29" height="26" as="geometry" />
        </mxCell>
        <mxCell id="uPuDeAvWnkZBqjxd4NfP-58" value="Équipement" style="swimlane;fontStyle=1;align=center;verticalAlign=top;childLayout=stackLayout;horizontal=1;startSize=26;horizontalStack=0;resizeParent=1;resizeLast=0;collapsible=1;marginBottom=0;rounded=0;shadow=0;strokeWidth=1;" parent="1" vertex="1">
          <mxGeometry x="1530" y="-11" width="194.29" height="182" as="geometry">
            <mxRectangle x="550" y="140" width="160" height="26" as="alternateBounds" />
          </mxGeometry>
        </mxCell>
        <mxCell id="uPuDeAvWnkZBqjxd4NfP-59" value="id_équipement: INT pk&gt;" style="text;align=left;verticalAlign=top;spacingLeft=4;spacingRight=4;overflow=hidden;rotatable=0;points=[[0,0.5],[1,0.5]];portConstraint=eastwest;rounded=0;shadow=0;html=0;fontStyle=4" parent="uPuDeAvWnkZBqjxd4NfP-58" vertex="1">
          <mxGeometry y="26" width="194.29" height="18" as="geometry" />
        </mxCell>
        <mxCell id="uPuDeAvWnkZBqjxd4NfP-60" value="nom: VARCHAR(50)" style="text;align=left;verticalAlign=top;spacingLeft=4;spacingRight=4;overflow=hidden;rotatable=0;points=[[0,0.5],[1,0.5]];portConstraint=eastwest;rounded=0;shadow=0;html=0;" parent="uPuDeAvWnkZBqjxd4NfP-58" vertex="1">
          <mxGeometry y="44" width="194.29" height="20" as="geometry" />
        </mxCell>
        <mxCell id="uPuDeAvWnkZBqjxd4NfP-61" value="type: VARCHAR(50)" style="text;align=left;verticalAlign=top;spacingLeft=4;spacingRight=4;overflow=hidden;rotatable=0;points=[[0,0.5],[1,0.5]];portConstraint=eastwest;rounded=0;shadow=0;html=0;" parent="uPuDeAvWnkZBqjxd4NfP-58" vertex="1">
          <mxGeometry y="64" width="194.29" height="26" as="geometry" />
        </mxCell>
        <mxCell id="uPuDeAvWnkZBqjxd4NfP-70" value="Hospitalisation" style="swimlane;fontStyle=1;align=center;verticalAlign=top;childLayout=stackLayout;horizontal=1;startSize=26;horizontalStack=0;resizeParent=1;resizeLast=0;collapsible=1;marginBottom=0;rounded=0;shadow=0;strokeWidth=1;" parent="1" vertex="1">
          <mxGeometry x="480.00000000000006" y="720" width="194.29" height="240" as="geometry">
            <mxRectangle x="550" y="140" width="160" height="26" as="alternateBounds" />
          </mxGeometry>
        </mxCell>
        <mxCell id="uPuDeAvWnkZBqjxd4NfP-71" value="id_hospitalisation: INT                                       &lt;pk&gt;" style="text;align=left;verticalAlign=top;spacingLeft=4;spacingRight=4;overflow=hidden;rotatable=0;points=[[0,0.5],[1,0.5]];portConstraint=eastwest;rounded=0;shadow=0;html=0;fontStyle=4" parent="uPuDeAvWnkZBqjxd4NfP-70" vertex="1">
          <mxGeometry y="26" width="194.29" height="18" as="geometry" />
        </mxCell>
        <mxCell id="uPuDeAvWnkZBqjxd4NfP-72" value="id_médecin: INT                                       &lt;fk&gt;" style="text;align=left;verticalAlign=top;spacingLeft=4;spacingRight=4;overflow=hidden;rotatable=0;points=[[0,0.5],[1,0.5]];portConstraint=eastwest;rounded=0;shadow=0;html=0;" parent="uPuDeAvWnkZBqjxd4NfP-70" vertex="1">
          <mxGeometry y="44" width="194.29" height="26" as="geometry" />
        </mxCell>
        <mxCell id="uPuDeAvWnkZBqjxd4NfP-73" value="id_patient: INT                                       &lt;fk&gt;" style="text;align=left;verticalAlign=top;spacingLeft=4;spacingRight=4;overflow=hidden;rotatable=0;points=[[0,0.5],[1,0.5]];portConstraint=eastwest;rounded=0;shadow=0;html=0;" parent="uPuDeAvWnkZBqjxd4NfP-70" vertex="1">
          <mxGeometry y="70" width="194.29" height="26" as="geometry" />
        </mxCell>
        <mxCell id="uPuDeAvWnkZBqjxd4NfP-74" value="motif: TEXT/CLOB" style="text;align=left;verticalAlign=top;spacingLeft=4;spacingRight=4;overflow=hidden;rotatable=0;points=[[0,0.5],[1,0.5]];portConstraint=eastwest;rounded=0;shadow=0;html=0;" parent="uPuDeAvWnkZBqjxd4NfP-70" vertex="1">
          <mxGeometry y="96" width="194.29" height="26" as="geometry" />
        </mxCell>
        <mxCell id="uPuDeAvWnkZBqjxd4NfP-75" value="id_chambre: INT                                       &lt;fk&gt;" style="text;align=left;verticalAlign=top;spacingLeft=4;spacingRight=4;overflow=hidden;rotatable=0;points=[[0,0.5],[1,0.5]];portConstraint=eastwest;rounded=0;shadow=0;html=0;" parent="uPuDeAvWnkZBqjxd4NfP-70" vertex="1">
          <mxGeometry y="122" width="194.29" height="26" as="geometry" />
        </mxCell>
        <mxCell id="7qXbEy4_ou5uuq6s0Rbz-2" style="edgeStyle=orthogonalEdgeStyle;rounded=0;orthogonalLoop=1;jettySize=auto;html=1;" parent="uPuDeAvWnkZBqjxd4NfP-70" source="uPuDeAvWnkZBqjxd4NfP-77" edge="1">
          <mxGeometry relative="1" as="geometry">
            <mxPoint x="389.99999999999994" y="161" as="targetPoint" />
          </mxGeometry>
        </mxCell>
        <mxCell id="uPuDeAvWnkZBqjxd4NfP-77" value="id_infirmier: INT                                       &lt;fk&gt;" style="text;align=left;verticalAlign=top;spacingLeft=4;spacingRight=4;overflow=hidden;rotatable=0;points=[[0,0.5],[1,0.5]];portConstraint=eastwest;rounded=0;shadow=0;html=0;" parent="uPuDeAvWnkZBqjxd4NfP-70" vertex="1">
          <mxGeometry y="148" width="194.29" height="26" as="geometry" />
        </mxCell>
        <mxCell id="uPuDeAvWnkZBqjxd4NfP-80" value="Prescription" style="swimlane;fontStyle=1;align=center;verticalAlign=top;childLayout=stackLayout;horizontal=1;startSize=26;horizontalStack=0;resizeParent=1;resizeLast=0;collapsible=1;marginBottom=0;rounded=0;shadow=0;strokeWidth=1;" parent="1" vertex="1">
          <mxGeometry x="-1170" y="742" width="194.29" height="210" as="geometry">
            <mxRectangle x="550" y="140" width="160" height="26" as="alternateBounds" />
          </mxGeometry>
        </mxCell>
        <mxCell id="uPuDeAvWnkZBqjxd4NfP-81" value="id_prescription: INT                                       &lt;pk&gt;" style="text;align=left;verticalAlign=top;spacingLeft=4;spacingRight=4;overflow=hidden;rotatable=0;points=[[0,0.5],[1,0.5]];portConstraint=eastwest;rounded=0;shadow=0;html=0;fontStyle=4" parent="uPuDeAvWnkZBqjxd4NfP-80" vertex="1">
          <mxGeometry y="26" width="194.29" height="18" as="geometry" />
        </mxCell>
        <mxCell id="uPuDeAvWnkZBqjxd4NfP-83" value="id_consultation: INT                                       &lt;fk&gt;" style="text;align=left;verticalAlign=top;spacingLeft=4;spacingRight=4;overflow=hidden;rotatable=0;points=[[0,0.5],[1,0.5]];portConstraint=eastwest;rounded=0;shadow=0;html=0;" parent="uPuDeAvWnkZBqjxd4NfP-80" vertex="1">
          <mxGeometry y="44" width="194.29" height="26" as="geometry" />
        </mxCell>
        <mxCell id="AstKOoGQgFCBJUyVqaT_-3" value="id_médicament: INT                                       &lt;fk&gt;" style="text;align=left;verticalAlign=top;spacingLeft=4;spacingRight=4;overflow=hidden;rotatable=0;points=[[0,0.5],[1,0.5]];portConstraint=eastwest;rounded=0;shadow=0;html=0;" parent="uPuDeAvWnkZBqjxd4NfP-80" vertex="1">
          <mxGeometry y="70" width="194.29" height="26" as="geometry" />
        </mxCell>
        <mxCell id="uPuDeAvWnkZBqjxd4NfP-84" value="date: DATETIME" style="text;align=left;verticalAlign=top;spacingLeft=4;spacingRight=4;overflow=hidden;rotatable=0;points=[[0,0.5],[1,0.5]];portConstraint=eastwest;rounded=0;shadow=0;html=0;" parent="uPuDeAvWnkZBqjxd4NfP-80" vertex="1">
          <mxGeometry y="96" width="194.29" height="26" as="geometry" />
        </mxCell>
        <mxCell id="uPuDeAvWnkZBqjxd4NfP-85" value="description: TEXT/CLOB" style="text;align=left;verticalAlign=top;spacingLeft=4;spacingRight=4;overflow=hidden;rotatable=0;points=[[0,0.5],[1,0.5]];portConstraint=eastwest;rounded=0;shadow=0;html=0;" parent="uPuDeAvWnkZBqjxd4NfP-80" vertex="1">
          <mxGeometry y="122" width="194.29" height="26" as="geometry" />
        </mxCell>
        <mxCell id="uPuDeAvWnkZBqjxd4NfP-87" value="Consultation" style="swimlane;fontStyle=1;align=center;verticalAlign=top;childLayout=stackLayout;horizontal=1;startSize=26;horizontalStack=0;resizeParent=1;resizeLast=0;collapsible=1;marginBottom=0;rounded=0;shadow=0;strokeWidth=1;" parent="1" vertex="1">
          <mxGeometry x="-680" y="709" width="194.29" height="230" as="geometry">
            <mxRectangle x="550" y="140" width="160" height="26" as="alternateBounds" />
          </mxGeometry>
        </mxCell>
        <mxCell id="uPuDeAvWnkZBqjxd4NfP-88" value="id_consultation: INT                                       &lt;pk&gt;" style="text;align=left;verticalAlign=top;spacingLeft=4;spacingRight=4;overflow=hidden;rotatable=0;points=[[0,0.5],[1,0.5]];portConstraint=eastwest;rounded=0;shadow=0;html=0;fontStyle=4" parent="uPuDeAvWnkZBqjxd4NfP-87" vertex="1">
          <mxGeometry y="26" width="194.29" height="18" as="geometry" />
        </mxCell>
        <mxCell id="uPuDeAvWnkZBqjxd4NfP-89" value="id_patient: INT                                       &lt;fk&gt;" style="text;align=left;verticalAlign=top;spacingLeft=4;spacingRight=4;overflow=hidden;rotatable=0;points=[[0,0.5],[1,0.5]];portConstraint=eastwest;rounded=0;shadow=0;html=0;" parent="uPuDeAvWnkZBqjxd4NfP-87" vertex="1">
          <mxGeometry y="44" width="194.29" height="26" as="geometry" />
        </mxCell>
        <mxCell id="uPuDeAvWnkZBqjxd4NfP-90" value="id_médecin: INT                                       &lt;fk&gt;" style="text;align=left;verticalAlign=top;spacingLeft=4;spacingRight=4;overflow=hidden;rotatable=0;points=[[0,0.5],[1,0.5]];portConstraint=eastwest;rounded=0;shadow=0;html=0;" parent="uPuDeAvWnkZBqjxd4NfP-87" vertex="1">
          <mxGeometry y="70" width="194.29" height="26" as="geometry" />
        </mxCell>
        <mxCell id="uPuDeAvWnkZBqjxd4NfP-91" value="date: DATETIME" style="text;align=left;verticalAlign=top;spacingLeft=4;spacingRight=4;overflow=hidden;rotatable=0;points=[[0,0.5],[1,0.5]];portConstraint=eastwest;rounded=0;shadow=0;html=0;" parent="uPuDeAvWnkZBqjxd4NfP-87" vertex="1">
          <mxGeometry y="96" width="194.29" height="26" as="geometry" />
        </mxCell>
        <mxCell id="uPuDeAvWnkZBqjxd4NfP-92" value="id_consultation_dérivée: INT                                       &lt;fk&gt;" style="text;align=left;verticalAlign=top;spacingLeft=4;spacingRight=4;overflow=hidden;rotatable=0;points=[[0,0.5],[1,0.5]];portConstraint=eastwest;rounded=0;shadow=0;html=0;" parent="uPuDeAvWnkZBqjxd4NfP-87" vertex="1">
          <mxGeometry y="122" width="194.29" height="26" as="geometry" />
        </mxCell>
        <mxCell id="uPuDeAvWnkZBqjxd4NfP-94" value="motif: TEXT/CLOB" style="text;align=left;verticalAlign=top;spacingLeft=4;spacingRight=4;overflow=hidden;rotatable=0;points=[[0,0.5],[1,0.5]];portConstraint=eastwest;rounded=0;shadow=0;html=0;" parent="uPuDeAvWnkZBqjxd4NfP-87" vertex="1">
          <mxGeometry y="148" width="194.29" height="26" as="geometry" />
        </mxCell>
        <mxCell id="uPuDeAvWnkZBqjxd4NfP-96" style="edgeStyle=orthogonalEdgeStyle;rounded=0;orthogonalLoop=1;jettySize=auto;html=1;exitX=0.5;exitY=1;exitDx=0;exitDy=0;entryX=1;entryY=0.5;entryDx=0;entryDy=0;" parent="uPuDeAvWnkZBqjxd4NfP-87" source="uPuDeAvWnkZBqjxd4NfP-87" target="uPuDeAvWnkZBqjxd4NfP-92" edge="1">
          <mxGeometry relative="1" as="geometry">
            <Array as="points">
              <mxPoint x="97" y="310" />
              <mxPoint x="320" y="310" />
              <mxPoint x="320" y="135" />
            </Array>
          </mxGeometry>
        </mxCell>
        <mxCell id="uPuDeAvWnkZBqjxd4NfP-97" value="Urgence" style="swimlane;fontStyle=1;align=center;verticalAlign=top;childLayout=stackLayout;horizontal=1;startSize=26;horizontalStack=0;resizeParent=1;resizeLast=0;collapsible=1;marginBottom=0;rounded=0;shadow=0;strokeWidth=1;" parent="1" vertex="1">
          <mxGeometry x="-190" y="914" width="194.29" height="160" as="geometry">
            <mxRectangle x="550" y="140" width="160" height="26" as="alternateBounds" />
          </mxGeometry>
        </mxCell>
        <mxCell id="uPuDeAvWnkZBqjxd4NfP-98" value="id_urgence: INT                                       &lt;pk&gt;" style="text;align=left;verticalAlign=top;spacingLeft=4;spacingRight=4;overflow=hidden;rotatable=0;points=[[0,0.5],[1,0.5]];portConstraint=eastwest;rounded=0;shadow=0;html=0;fontStyle=4" parent="uPuDeAvWnkZBqjxd4NfP-97" vertex="1">
          <mxGeometry y="26" width="194.29" height="18" as="geometry" />
        </mxCell>
        <mxCell id="uPuDeAvWnkZBqjxd4NfP-99" value="id_patient: INT                                       &lt;fk&gt;" style="text;align=left;verticalAlign=top;spacingLeft=4;spacingRight=4;overflow=hidden;rotatable=0;points=[[0,0.5],[1,0.5]];portConstraint=eastwest;rounded=0;shadow=0;html=0;" parent="uPuDeAvWnkZBqjxd4NfP-97" vertex="1">
          <mxGeometry y="44" width="194.29" height="26" as="geometry" />
        </mxCell>
        <mxCell id="uPuDeAvWnkZBqjxd4NfP-100" value="date: DATETIME" style="text;align=left;verticalAlign=top;spacingLeft=4;spacingRight=4;overflow=hidden;rotatable=0;points=[[0,0.5],[1,0.5]];portConstraint=eastwest;rounded=0;shadow=0;html=0;" parent="uPuDeAvWnkZBqjxd4NfP-97" vertex="1">
          <mxGeometry y="70" width="194.29" height="26" as="geometry" />
        </mxCell>
        <mxCell id="uPuDeAvWnkZBqjxd4NfP-101" value="description: TEXT/CLOB" style="text;align=left;verticalAlign=top;spacingLeft=4;spacingRight=4;overflow=hidden;rotatable=0;points=[[0,0.5],[1,0.5]];portConstraint=eastwest;rounded=0;shadow=0;html=0;" parent="uPuDeAvWnkZBqjxd4NfP-97" vertex="1">
          <mxGeometry y="96" width="194.29" height="26" as="geometry" />
        </mxCell>
        <mxCell id="7qXbEy4_ou5uuq6s0Rbz-1" value="id_médecin: INT                                       &lt;fk&gt;" style="text;align=left;verticalAlign=top;spacingLeft=4;spacingRight=4;overflow=hidden;rotatable=0;points=[[0,0.5],[1,0.5]];portConstraint=eastwest;rounded=0;shadow=0;html=0;" parent="uPuDeAvWnkZBqjxd4NfP-97" vertex="1">
          <mxGeometry y="122" width="194.29" height="26" as="geometry" />
        </mxCell>
        <mxCell id="uPuDeAvWnkZBqjxd4NfP-103" value="Facture" style="swimlane;fontStyle=1;align=center;verticalAlign=top;childLayout=stackLayout;horizontal=1;startSize=26;horizontalStack=0;resizeParent=1;resizeLast=0;collapsible=1;marginBottom=0;rounded=0;shadow=0;strokeWidth=1;" parent="1" vertex="1">
          <mxGeometry x="-540" y="310" width="194.29" height="155" as="geometry">
            <mxRectangle x="550" y="140" width="160" height="26" as="alternateBounds" />
          </mxGeometry>
        </mxCell>
        <mxCell id="uPuDeAvWnkZBqjxd4NfP-104" value="id_facture: INT                                       &lt;pk&gt;" style="text;align=left;verticalAlign=top;spacingLeft=4;spacingRight=4;overflow=hidden;rotatable=0;points=[[0,0.5],[1,0.5]];portConstraint=eastwest;rounded=0;shadow=0;html=0;fontStyle=4" parent="uPuDeAvWnkZBqjxd4NfP-103" vertex="1">
          <mxGeometry y="26" width="194.29" height="18" as="geometry" />
        </mxCell>
        <mxCell id="uPuDeAvWnkZBqjxd4NfP-105" value="id_patient: INT                                       &lt;fk&gt;" style="text;align=left;verticalAlign=top;spacingLeft=4;spacingRight=4;overflow=hidden;rotatable=0;points=[[0,0.5],[1,0.5]];portConstraint=eastwest;rounded=0;shadow=0;html=0;" parent="uPuDeAvWnkZBqjxd4NfP-103" vertex="1">
          <mxGeometry y="44" width="194.29" height="26" as="geometry" />
        </mxCell>
        <mxCell id="uPuDeAvWnkZBqjxd4NfP-106" value="montant: FLOAT" style="text;align=left;verticalAlign=top;spacingLeft=4;spacingRight=4;overflow=hidden;rotatable=0;points=[[0,0.5],[1,0.5]];portConstraint=eastwest;rounded=0;shadow=0;html=0;" parent="uPuDeAvWnkZBqjxd4NfP-103" vertex="1">
          <mxGeometry y="70" width="194.29" height="26" as="geometry" />
        </mxCell>
        <mxCell id="uPuDeAvWnkZBqjxd4NfP-107" value="date: DATETIME" style="text;align=left;verticalAlign=top;spacingLeft=4;spacingRight=4;overflow=hidden;rotatable=0;points=[[0,0.5],[1,0.5]];portConstraint=eastwest;rounded=0;shadow=0;html=0;" parent="uPuDeAvWnkZBqjxd4NfP-103" vertex="1">
          <mxGeometry y="96" width="194.29" height="26" as="geometry" />
        </mxCell>
        <mxCell id="uPuDeAvWnkZBqjxd4NfP-109" value="Médicament" style="swimlane;fontStyle=1;align=center;verticalAlign=top;childLayout=stackLayout;horizontal=1;startSize=26;horizontalStack=0;resizeParent=1;resizeLast=0;collapsible=1;marginBottom=0;rounded=0;shadow=0;strokeWidth=1;" parent="1" vertex="1">
          <mxGeometry x="-1620" y="768" width="194.29" height="162" as="geometry">
            <mxRectangle x="550" y="140" width="160" height="26" as="alternateBounds" />
          </mxGeometry>
        </mxCell>
        <mxCell id="uPuDeAvWnkZBqjxd4NfP-110" value="id_médicament: INT                                       &lt;pk&gt;" style="text;align=left;verticalAlign=top;spacingLeft=4;spacingRight=4;overflow=hidden;rotatable=0;points=[[0,0.5],[1,0.5]];portConstraint=eastwest;rounded=0;shadow=0;html=0;fontStyle=4" parent="uPuDeAvWnkZBqjxd4NfP-109" vertex="1">
          <mxGeometry y="26" width="194.29" height="18" as="geometry" />
        </mxCell>
        <mxCell id="uPuDeAvWnkZBqjxd4NfP-111" value="nom: VARCHAR(50)" style="text;align=left;verticalAlign=top;spacingLeft=4;spacingRight=4;overflow=hidden;rotatable=0;points=[[0,0.5],[1,0.5]];portConstraint=eastwest;rounded=0;shadow=0;html=0;" parent="uPuDeAvWnkZBqjxd4NfP-109" vertex="1">
          <mxGeometry y="44" width="194.29" height="26" as="geometry" />
        </mxCell>
        <mxCell id="uPuDeAvWnkZBqjxd4NfP-112" value="description: TEXT/CLOB" style="text;align=left;verticalAlign=top;spacingLeft=4;spacingRight=4;overflow=hidden;rotatable=0;points=[[0,0.5],[1,0.5]];portConstraint=eastwest;rounded=0;shadow=0;html=0;" parent="uPuDeAvWnkZBqjxd4NfP-109" vertex="1">
          <mxGeometry y="70" width="194.29" height="26" as="geometry" />
        </mxCell>
        <mxCell id="uPuDeAvWnkZBqjxd4NfP-115" value="" style="html=1;verticalAlign=bottom;endArrow=block;curved=0;rounded=0;exitX=0.5;exitY=0;exitDx=0;exitDy=0;endFill=1;strokeWidth=1;jumpSize=10;fontSize=10;endSize=14;entryX=0.5;entryY=1;entryDx=0;entryDy=0;" parent="1" source="uPuDeAvWnkZBqjxd4NfP-38" target="uPuDeAvWnkZBqjxd4NfP-16" edge="1">
          <mxGeometry width="80" relative="1" as="geometry">
            <mxPoint x="1262" y="1109" as="sourcePoint" />
            <mxPoint x="1285" y="989" as="targetPoint" />
          </mxGeometry>
        </mxCell>
        <mxCell id="uPuDeAvWnkZBqjxd4NfP-126" value="Locaux" style="swimlane;fontStyle=1;align=center;verticalAlign=top;childLayout=stackLayout;horizontal=1;startSize=26;horizontalStack=0;resizeParent=1;resizeLast=0;collapsible=1;marginBottom=0;rounded=0;shadow=0;strokeWidth=1;" parent="1" vertex="1">
          <mxGeometry x="709.85" y="-10" width="194.29" height="160" as="geometry">
            <mxRectangle x="550" y="140" width="160" height="26" as="alternateBounds" />
          </mxGeometry>
        </mxCell>
        <mxCell id="uPuDeAvWnkZBqjxd4NfP-127" value="id_locaux: INT                                       &lt;pk&gt;" style="text;align=left;verticalAlign=top;spacingLeft=4;spacingRight=4;overflow=hidden;rotatable=0;points=[[0,0.5],[1,0.5]];portConstraint=eastwest;rounded=0;shadow=0;html=0;fontStyle=4" parent="uPuDeAvWnkZBqjxd4NfP-126" vertex="1">
          <mxGeometry y="26" width="194.29" height="18" as="geometry" />
        </mxCell>
        <mxCell id="uPuDeAvWnkZBqjxd4NfP-128" value="id_service: INT                                       &lt;pk, fk&gt;" style="text;align=left;verticalAlign=top;spacingLeft=4;spacingRight=4;overflow=hidden;rotatable=0;points=[[0,0.5],[1,0.5]];portConstraint=eastwest;rounded=0;shadow=0;html=0;fontStyle=4" parent="uPuDeAvWnkZBqjxd4NfP-126" vertex="1">
          <mxGeometry y="44" width="194.29" height="18" as="geometry" />
        </mxCell>
        <mxCell id="uPuDeAvWnkZBqjxd4NfP-129" value="localisation: VARCHAR(50)" style="text;align=left;verticalAlign=top;spacingLeft=4;spacingRight=4;overflow=hidden;rotatable=0;points=[[0,0.5],[1,0.5]];portConstraint=eastwest;rounded=0;shadow=0;html=0;" parent="uPuDeAvWnkZBqjxd4NfP-126" vertex="1">
          <mxGeometry y="62" width="194.29" height="26" as="geometry" />
        </mxCell>
        <mxCell id="uPuDeAvWnkZBqjxd4NfP-130" value="fonctions: VARCHAR(50)" style="text;align=left;verticalAlign=top;spacingLeft=4;spacingRight=4;overflow=hidden;rotatable=0;points=[[0,0.5],[1,0.5]];portConstraint=eastwest;rounded=0;shadow=0;html=0;" parent="uPuDeAvWnkZBqjxd4NfP-126" vertex="1">
          <mxGeometry y="88" width="194.29" height="26" as="geometry" />
        </mxCell>
        <mxCell id="uPuDeAvWnkZBqjxd4NfP-132" value="" style="html=1;verticalAlign=bottom;endArrow=block;curved=0;rounded=0;exitX=0.5;exitY=0;exitDx=0;exitDy=0;endFill=1;strokeWidth=1;jumpSize=10;fontSize=10;endSize=14;entryX=0.25;entryY=1;entryDx=0;entryDy=0;" parent="1" source="uPuDeAvWnkZBqjxd4NfP-49" target="uPuDeAvWnkZBqjxd4NfP-126" edge="1">
          <mxGeometry width="80" relative="1" as="geometry">
            <mxPoint x="705" y="270" as="sourcePoint" />
            <mxPoint x="585" y="180" as="targetPoint" />
          </mxGeometry>
        </mxCell>
        <mxCell id="uPuDeAvWnkZBqjxd4NfP-133" value="" style="html=1;verticalAlign=bottom;endArrow=block;curved=0;rounded=0;endFill=1;strokeWidth=1;jumpSize=10;fontSize=10;endSize=14;entryX=0.75;entryY=1;entryDx=0;entryDy=0;exitX=0.5;exitY=0;exitDx=0;exitDy=0;" parent="1" source="uPuDeAvWnkZBqjxd4NfP-134" target="uPuDeAvWnkZBqjxd4NfP-126" edge="1">
          <mxGeometry width="80" relative="1" as="geometry">
            <mxPoint x="790" y="250" as="sourcePoint" />
            <mxPoint x="650" y="230" as="targetPoint" />
          </mxGeometry>
        </mxCell>
        <mxCell id="uPuDeAvWnkZBqjxd4NfP-134" value="Stockage" style="swimlane;fontStyle=1;align=center;verticalAlign=top;childLayout=stackLayout;horizontal=1;startSize=26;horizontalStack=0;resizeParent=1;resizeLast=0;collapsible=1;marginBottom=0;rounded=0;shadow=0;strokeWidth=1;" parent="1" vertex="1">
          <mxGeometry x="877.86" y="384" width="194.29" height="104" as="geometry">
            <mxRectangle x="550" y="140" width="160" height="26" as="alternateBounds" />
          </mxGeometry>
        </mxCell>
        <mxCell id="uPuDeAvWnkZBqjxd4NfP-135" value="id_locaux: INT                                       &lt;pk,, fk&gt;" style="text;align=left;verticalAlign=top;spacingLeft=4;spacingRight=4;overflow=hidden;rotatable=0;points=[[0,0.5],[1,0.5]];portConstraint=eastwest;rounded=0;shadow=0;html=0;fontStyle=4" parent="uPuDeAvWnkZBqjxd4NfP-134" vertex="1">
          <mxGeometry y="26" width="194.29" height="18" as="geometry" />
        </mxCell>
        <mxCell id="uPuDeAvWnkZBqjxd4NfP-136" value="description: TEXT/CLOB" style="text;align=left;verticalAlign=top;spacingLeft=4;spacingRight=4;overflow=hidden;rotatable=0;points=[[0,0.5],[1,0.5]];portConstraint=eastwest;rounded=0;shadow=0;html=0;" parent="uPuDeAvWnkZBqjxd4NfP-134" vertex="1">
          <mxGeometry y="44" width="194.29" height="26" as="geometry" />
        </mxCell>
        <mxCell id="uPuDeAvWnkZBqjxd4NfP-144" style="edgeStyle=orthogonalEdgeStyle;rounded=0;orthogonalLoop=1;jettySize=auto;html=1;entryX=0;entryY=0.5;entryDx=0;entryDy=0;exitX=1;exitY=0.5;exitDx=0;exitDy=0;" parent="1" source="uPuDeAvWnkZBqjxd4NfP-106" target="uPuDeAvWnkZBqjxd4NfP-11" edge="1">
          <mxGeometry relative="1" as="geometry">
            <mxPoint x="-340" y="393" as="sourcePoint" />
          </mxGeometry>
        </mxCell>
        <mxCell id="uPuDeAvWnkZBqjxd4NfP-145" value="FK_FACTURE_PATIENT" style="text;html=1;align=center;verticalAlign=middle;resizable=0;points=[];autosize=1;strokeColor=none;fillColor=none;" parent="1" vertex="1">
          <mxGeometry x="-210" y="346" width="160" height="30" as="geometry" />
        </mxCell>
        <mxCell id="uPuDeAvWnkZBqjxd4NfP-146" style="edgeStyle=orthogonalEdgeStyle;rounded=0;orthogonalLoop=1;jettySize=auto;html=1;entryX=0.042;entryY=0.558;entryDx=0;entryDy=0;entryPerimeter=0;" parent="1" edge="1">
          <mxGeometry relative="1" as="geometry">
            <mxPoint x="-120" y="173" as="sourcePoint" />
            <mxPoint x="79.99999999999993" y="173.0079999999998" as="targetPoint" />
          </mxGeometry>
        </mxCell>
        <mxCell id="uPuDeAvWnkZBqjxd4NfP-147" value="FK_PROFIL_PATIENT" style="text;html=1;align=center;verticalAlign=middle;resizable=0;points=[];autosize=1;strokeColor=none;fillColor=none;" parent="1" vertex="1">
          <mxGeometry x="-90" y="143" width="140" height="30" as="geometry" />
        </mxCell>
        <mxCell id="uPuDeAvWnkZBqjxd4NfP-149" value="FK_LOCAUX_SERVICE" style="text;html=1;align=center;verticalAlign=middle;resizable=0;points=[];autosize=1;strokeColor=none;fillColor=none;" parent="1" vertex="1">
          <mxGeometry x="931.14" y="39" width="150" height="30" as="geometry" />
        </mxCell>
        <mxCell id="uPuDeAvWnkZBqjxd4NfP-150" style="edgeStyle=orthogonalEdgeStyle;rounded=0;orthogonalLoop=1;jettySize=auto;html=1;exitX=1.025;exitY=0.863;exitDx=0;exitDy=0;exitPerimeter=0;entryX=0;entryY=0.709;entryDx=0;entryDy=0;entryPerimeter=0;" parent="1" source="uPuDeAvWnkZBqjxd4NfP-129" target="uPuDeAvWnkZBqjxd4NfP-56" edge="1">
          <mxGeometry relative="1" as="geometry">
            <mxPoint x="1100" y="91" as="targetPoint" />
          </mxGeometry>
        </mxCell>
        <mxCell id="uPuDeAvWnkZBqjxd4NfP-151" value="FK_&lt;div&gt;PRESCRIPTION_CONSULTATION&lt;/div&gt;" style="text;html=1;align=center;verticalAlign=middle;resizable=0;points=[];autosize=1;strokeColor=none;fillColor=none;" parent="1" vertex="1">
          <mxGeometry x="-944" y="796" width="210" height="40" as="geometry" />
        </mxCell>
        <mxCell id="uPuDeAvWnkZBqjxd4NfP-154" value="FK_CONSULTATION_CONSULTATION" style="text;html=1;align=center;verticalAlign=middle;resizable=0;points=[];autosize=1;strokeColor=none;fillColor=none;" parent="1" vertex="1">
          <mxGeometry x="-590" y="961" width="230" height="30" as="geometry" />
        </mxCell>
        <mxCell id="uPuDeAvWnkZBqjxd4NfP-155" style="edgeStyle=orthogonalEdgeStyle;rounded=0;orthogonalLoop=1;jettySize=auto;html=1;exitX=1;exitY=0.5;exitDx=0;exitDy=0;entryX=0;entryY=0.5;entryDx=0;entryDy=0;" parent="1" source="uPuDeAvWnkZBqjxd4NfP-83" target="uPuDeAvWnkZBqjxd4NfP-92" edge="1">
          <mxGeometry relative="1" as="geometry">
            <Array as="points">
              <mxPoint x="-976" y="844" />
            </Array>
            <mxPoint x="-740" y="790" as="targetPoint" />
          </mxGeometry>
        </mxCell>
        <mxCell id="uPuDeAvWnkZBqjxd4NfP-156" value="FK_MEDECIN PERSONNEL" style="text;html=1;align=center;verticalAlign=middle;resizable=0;points=[];autosize=1;strokeColor=none;fillColor=none;rotation=340;" parent="1" vertex="1">
          <mxGeometry x="619" y="1067" width="180" height="30" as="geometry" />
        </mxCell>
        <mxCell id="uPuDeAvWnkZBqjxd4NfP-157" value="FK_INFIRMIER_PERSONNEL" style="text;html=1;align=center;verticalAlign=middle;resizable=0;points=[];autosize=1;strokeColor=none;fillColor=none;" parent="1" vertex="1">
          <mxGeometry x="915.0500000000001" y="930" width="190" height="30" as="geometry" />
        </mxCell>
        <mxCell id="uPuDeAvWnkZBqjxd4NfP-158" value="FK_INTENDANCE_PERSONNEL" style="text;html=1;align=center;verticalAlign=middle;resizable=0;points=[];autosize=1;strokeColor=none;fillColor=none;" parent="1" vertex="1">
          <mxGeometry x="1275" y="1010" width="200" height="30" as="geometry" />
        </mxCell>
        <mxCell id="uPuDeAvWnkZBqjxd4NfP-159" value="FK_STOCKAGE_LOCAUX" style="text;html=1;align=center;verticalAlign=middle;resizable=0;points=[];autosize=1;strokeColor=none;fillColor=none;" parent="1" vertex="1">
          <mxGeometry x="890" y="190" width="170" height="30" as="geometry" />
        </mxCell>
        <mxCell id="uPuDeAvWnkZBqjxd4NfP-160" value="FK_CHAMBRE_LOCAUX" style="text;html=1;align=center;verticalAlign=middle;resizable=0;points=[];autosize=1;strokeColor=none;fillColor=none;" parent="1" vertex="1">
          <mxGeometry x="520" y="258" width="160" height="30" as="geometry" />
        </mxCell>
        <mxCell id="uPuDeAvWnkZBqjxd4NfP-170" style="edgeStyle=orthogonalEdgeStyle;rounded=0;orthogonalLoop=1;jettySize=auto;html=1;exitX=0.25;exitY=1;exitDx=0;exitDy=0;entryX=1;entryY=0.5;entryDx=0;entryDy=0;" parent="1" source="uPuDeAvWnkZBqjxd4NfP-171" target="uPuDeAvWnkZBqjxd4NfP-75" edge="1">
          <mxGeometry relative="1" as="geometry" />
        </mxCell>
        <mxCell id="uPuDeAvWnkZBqjxd4NfP-171" value="Suivi" style="swimlane;fontStyle=1;align=center;verticalAlign=top;childLayout=stackLayout;horizontal=1;startSize=26;horizontalStack=0;resizeParent=1;resizeParentMax=0;resizeLast=0;collapsible=1;marginBottom=0;whiteSpace=wrap;html=1;" parent="1" vertex="1">
          <mxGeometry x="775" y="580" width="180" height="100" as="geometry" />
        </mxCell>
        <mxCell id="uPuDeAvWnkZBqjxd4NfP-172" value="&lt;span style=&quot;text-wrap-mode: nowrap; text-decoration-line: underline;&quot;&gt;id_hospitalisation: INT &amp;lt;pk, fk1&amp;gt;&lt;/span&gt;" style="text;strokeColor=none;fillColor=none;align=left;verticalAlign=top;spacingLeft=4;spacingRight=4;overflow=hidden;rotatable=0;points=[[0,0.5],[1,0.5]];portConstraint=eastwest;whiteSpace=wrap;html=1;" parent="uPuDeAvWnkZBqjxd4NfP-171" vertex="1">
          <mxGeometry y="26" width="180" height="26" as="geometry" />
        </mxCell>
        <mxCell id="uPuDeAvWnkZBqjxd4NfP-173" value="id_infirmier: INT                                       &lt;pk, fk2&gt;" style="text;align=left;verticalAlign=top;spacingLeft=4;spacingRight=4;overflow=hidden;rotatable=0;points=[[0,0.5],[1,0.5]];portConstraint=eastwest;rounded=0;shadow=0;html=0;fontStyle=4" parent="uPuDeAvWnkZBqjxd4NfP-171" vertex="1">
          <mxGeometry y="52" width="180" height="48" as="geometry" />
        </mxCell>
        <mxCell id="uPuDeAvWnkZBqjxd4NfP-175" value="FK_SUIVI_HOSPITALISATION" style="text;html=1;align=center;verticalAlign=middle;resizable=0;points=[];autosize=1;strokeColor=none;fillColor=none;" parent="1" vertex="1">
          <mxGeometry x="695" y="732" width="190" height="30" as="geometry" />
        </mxCell>
        <mxCell id="uPuDeAvWnkZBqjxd4NfP-176" value="FK_SUIVI_INFIRMIER" style="text;html=1;align=center;verticalAlign=middle;resizable=0;points=[];autosize=1;strokeColor=none;fillColor=none;" parent="1" vertex="1">
          <mxGeometry x="915" y="729" width="140" height="30" as="geometry" />
        </mxCell>
        <mxCell id="uPuDeAvWnkZBqjxd4NfP-177" style="edgeStyle=orthogonalEdgeStyle;rounded=0;orthogonalLoop=1;jettySize=auto;html=1;exitX=0.75;exitY=1;exitDx=0;exitDy=0;entryX=0.197;entryY=0.005;entryDx=0;entryDy=0;entryPerimeter=0;" parent="1" source="uPuDeAvWnkZBqjxd4NfP-171" target="uPuDeAvWnkZBqjxd4NfP-33" edge="1">
          <mxGeometry relative="1" as="geometry" />
        </mxCell>
        <mxCell id="O-nhuloVt1XqU0aJGnjV-1" value="" style="endArrow=classic;html=1;rounded=0;entryX=0.25;entryY=1;entryDx=0;entryDy=0;exitX=1;exitY=0.5;exitDx=0;exitDy=0;" parent="1" source="uPuDeAvWnkZBqjxd4NfP-99" target="uPuDeAvWnkZBqjxd4NfP-1" edge="1">
          <mxGeometry width="50" height="50" relative="1" as="geometry">
            <mxPoint x="40" y="1030" as="sourcePoint" />
            <mxPoint x="90" y="980" as="targetPoint" />
          </mxGeometry>
        </mxCell>
        <mxCell id="O-nhuloVt1XqU0aJGnjV-2" value="" style="endArrow=classic;html=1;rounded=0;exitX=1;exitY=0.5;exitDx=0;exitDy=0;entryX=0.25;entryY=0;entryDx=0;entryDy=0;" parent="1" source="uPuDeAvWnkZBqjxd4NfP-101" target="uPuDeAvWnkZBqjxd4NfP-28" edge="1">
          <mxGeometry width="50" height="50" relative="1" as="geometry">
            <mxPoint x="60" y="1052" as="sourcePoint" />
            <mxPoint x="170" y="1230" as="targetPoint" />
          </mxGeometry>
        </mxCell>
        <mxCell id="O-nhuloVt1XqU0aJGnjV-3" value="" style="endArrow=classic;html=1;rounded=0;entryX=0.75;entryY=1;entryDx=0;entryDy=0;exitX=0;exitY=0.5;exitDx=0;exitDy=0;" parent="1" edge="1">
          <mxGeometry width="50" height="50" relative="1" as="geometry">
            <mxPoint x="480" y="830" as="sourcePoint" />
            <mxPoint x="260" y="661" as="targetPoint" />
          </mxGeometry>
        </mxCell>
        <mxCell id="O-nhuloVt1XqU0aJGnjV-4" value="" style="endArrow=classic;html=1;rounded=0;exitX=0;exitY=0.5;exitDx=0;exitDy=0;entryX=0.75;entryY=0;entryDx=0;entryDy=0;" parent="1" target="uPuDeAvWnkZBqjxd4NfP-28" edge="1">
          <mxGeometry width="50" height="50" relative="1" as="geometry">
            <mxPoint x="480" y="881" as="sourcePoint" />
            <mxPoint x="270" y="1070" as="targetPoint" />
          </mxGeometry>
        </mxCell>
        <mxCell id="O-nhuloVt1XqU0aJGnjV-5" value="" style="endArrow=classic;html=1;rounded=0;" parent="1" edge="1">
          <mxGeometry width="50" height="50" relative="1" as="geometry">
            <mxPoint x="-640" y="940" as="sourcePoint" />
            <mxPoint x="129" y="1230" as="targetPoint" />
            <Array as="points">
              <mxPoint x="-640" y="1230" />
              <mxPoint x="-410" y="1230" />
            </Array>
          </mxGeometry>
        </mxCell>
        <mxCell id="O-nhuloVt1XqU0aJGnjV-6" value="FK_URGENCE_PATIENT" style="text;html=1;align=center;verticalAlign=middle;resizable=0;points=[];autosize=1;strokeColor=none;fillColor=none;rotation=-60;" parent="1" vertex="1">
          <mxGeometry x="-24" y="796" width="160" height="30" as="geometry" />
        </mxCell>
        <mxCell id="O-nhuloVt1XqU0aJGnjV-7" value="FK_URGENCE_MEDECIN" style="text;html=1;align=center;verticalAlign=middle;resizable=0;points=[];autosize=1;strokeColor=none;fillColor=none;rotation=45;" parent="1" vertex="1">
          <mxGeometry x="-18" y="1115" width="170" height="30" as="geometry" />
        </mxCell>
        <mxCell id="O-nhuloVt1XqU0aJGnjV-8" value="FK_HOSPITALISATION_PATIENT" style="text;html=1;align=center;verticalAlign=middle;resizable=0;points=[];autosize=1;strokeColor=none;fillColor=none;rotation=40;" parent="1" vertex="1">
          <mxGeometry x="280" y="720" width="210" height="30" as="geometry" />
        </mxCell>
        <mxCell id="O-nhuloVt1XqU0aJGnjV-9" value="FK_HOSPITALISATION_MEDECIN" style="text;html=1;align=center;verticalAlign=middle;resizable=0;points=[];autosize=1;strokeColor=none;fillColor=none;rotation=-57;" parent="1" vertex="1">
          <mxGeometry x="293.14" y="1056" width="210" height="30" as="geometry" />
        </mxCell>
        <mxCell id="OeS46mG-GQaxHDaQ9bVD-1" value="FK_CONSULTATION_MEDECIN" style="text;html=1;align=center;verticalAlign=middle;resizable=0;points=[];autosize=1;strokeColor=none;fillColor=none;rotation=0;" parent="1" vertex="1">
          <mxGeometry x="-630" y="1180" width="200" height="30" as="geometry" />
        </mxCell>
        <mxCell id="OeS46mG-GQaxHDaQ9bVD-5" value="FK_CONSULTATION_PATIENT" style="text;html=1;align=center;verticalAlign=middle;resizable=0;points=[];autosize=1;strokeColor=none;fillColor=none;rotation=0;" parent="1" vertex="1">
          <mxGeometry x="-734" y="606" width="190" height="30" as="geometry" />
        </mxCell>
        <mxCell id="OeS46mG-GQaxHDaQ9bVD-6" value="FK_SERVICE_EQUIPEMENT" style="text;html=1;align=center;verticalAlign=middle;resizable=0;points=[];autosize=1;strokeColor=none;fillColor=none;" parent="1" vertex="1">
          <mxGeometry x="1315" y="44" width="180" height="30" as="geometry" />
        </mxCell>
        <mxCell id="QU5SUbdfMxHjPgERnhRS-1" value="Contact" style="swimlane;fontStyle=1;align=center;verticalAlign=top;childLayout=stackLayout;horizontal=1;startSize=26;horizontalStack=0;resizeParent=1;resizeLast=0;collapsible=1;marginBottom=0;rounded=0;shadow=0;strokeWidth=1;" parent="1" vertex="1">
          <mxGeometry x="-310" y="450" width="194.29" height="155" as="geometry">
            <mxRectangle x="550" y="140" width="160" height="26" as="alternateBounds" />
          </mxGeometry>
        </mxCell>
        <mxCell id="QU5SUbdfMxHjPgERnhRS-2" value="id_contact: INT                                       &lt;pk&gt;" style="text;align=left;verticalAlign=top;spacingLeft=4;spacingRight=4;overflow=hidden;rotatable=0;points=[[0,0.5],[1,0.5]];portConstraint=eastwest;rounded=0;shadow=0;html=0;fontStyle=4" parent="QU5SUbdfMxHjPgERnhRS-1" vertex="1">
          <mxGeometry y="26" width="194.29" height="18" as="geometry" />
        </mxCell>
        <mxCell id="QU5SUbdfMxHjPgERnhRS-3" value="id_patient: INT                                       &lt;fk&gt;" style="text;align=left;verticalAlign=top;spacingLeft=4;spacingRight=4;overflow=hidden;rotatable=0;points=[[0,0.5],[1,0.5]];portConstraint=eastwest;rounded=0;shadow=0;html=0;" parent="QU5SUbdfMxHjPgERnhRS-1" vertex="1">
          <mxGeometry y="44" width="194.29" height="26" as="geometry" />
        </mxCell>
        <mxCell id="QU5SUbdfMxHjPgERnhRS-4" value="téléphone: String" style="text;align=left;verticalAlign=top;spacingLeft=4;spacingRight=4;overflow=hidden;rotatable=0;points=[[0,0.5],[1,0.5]];portConstraint=eastwest;rounded=0;shadow=0;html=0;" parent="QU5SUbdfMxHjPgERnhRS-1" vertex="1">
          <mxGeometry y="70" width="194.29" height="26" as="geometry" />
        </mxCell>
        <mxCell id="QU5SUbdfMxHjPgERnhRS-5" value="num_assurance: String" style="text;align=left;verticalAlign=top;spacingLeft=4;spacingRight=4;overflow=hidden;rotatable=0;points=[[0,0.5],[1,0.5]];portConstraint=eastwest;rounded=0;shadow=0;html=0;" parent="QU5SUbdfMxHjPgERnhRS-1" vertex="1">
          <mxGeometry y="96" width="194.29" height="26" as="geometry" />
        </mxCell>
        <mxCell id="QU5SUbdfMxHjPgERnhRS-7" value="Antécédents" style="swimlane;fontStyle=1;align=center;verticalAlign=top;childLayout=stackLayout;horizontal=1;startSize=26;horizontalStack=0;resizeParent=1;resizeLast=0;collapsible=1;marginBottom=0;rounded=0;shadow=0;strokeWidth=1;" parent="1" vertex="1">
          <mxGeometry x="-687.29" y="94" width="194.29" height="150" as="geometry">
            <mxRectangle x="550" y="140" width="160" height="26" as="alternateBounds" />
          </mxGeometry>
        </mxCell>
        <mxCell id="QU5SUbdfMxHjPgERnhRS-8" value="id_antécédents: INT                                       &lt;pk&gt;" style="text;align=left;verticalAlign=top;spacingLeft=4;spacingRight=4;overflow=hidden;rotatable=0;points=[[0,0.5],[1,0.5]];portConstraint=eastwest;rounded=0;shadow=0;html=0;fontStyle=4;fontFamily=Helvetica;fontSize=12;fontColor=default;" parent="QU5SUbdfMxHjPgERnhRS-7" vertex="1">
          <mxGeometry y="26" width="194.29" height="24" as="geometry" />
        </mxCell>
        <mxCell id="QU5SUbdfMxHjPgERnhRS-11" value="traitements: TEXT/CLOB" style="text;align=left;verticalAlign=top;spacingLeft=4;spacingRight=4;overflow=hidden;rotatable=0;points=[[0,0.5],[1,0.5]];portConstraint=eastwest;rounded=0;shadow=0;html=0;" parent="QU5SUbdfMxHjPgERnhRS-7" vertex="1">
          <mxGeometry y="50" width="194.29" height="26" as="geometry" />
        </mxCell>
        <mxCell id="oY7t5Rdmb1ISyH3gKLm8-2" value="id_profil_médical: INT                                       &lt;fk&gt;" style="text;align=left;verticalAlign=top;spacingLeft=4;spacingRight=4;overflow=hidden;rotatable=0;points=[[0,0.5],[1,0.5]];portConstraint=eastwest;rounded=0;shadow=0;html=0;fontStyle=0;fontFamily=Helvetica;fontSize=12;fontColor=default;" parent="QU5SUbdfMxHjPgERnhRS-7" vertex="1">
          <mxGeometry y="76" width="194.29" height="24" as="geometry" />
        </mxCell>
        <mxCell id="GoRobd4gFBEXfn3TYlUb-1" style="edgeStyle=orthogonalEdgeStyle;rounded=0;orthogonalLoop=1;jettySize=auto;html=1;entryX=0;entryY=0.5;entryDx=0;entryDy=0;exitX=1;exitY=0.5;exitDx=0;exitDy=0;" parent="1" edge="1">
          <mxGeometry relative="1" as="geometry">
            <mxPoint x="-493" y="171" as="sourcePoint" />
            <mxPoint x="-314.28999999999996" y="171" as="targetPoint" />
          </mxGeometry>
        </mxCell>
        <mxCell id="GoRobd4gFBEXfn3TYlUb-2" value="FK_ANTECEDENTS_PROFIL" style="text;html=1;align=center;verticalAlign=middle;resizable=0;points=[];autosize=1;strokeColor=none;fillColor=none;" parent="1" vertex="1">
          <mxGeometry x="-492" y="141" width="180" height="30" as="geometry" />
        </mxCell>
        <mxCell id="zpkq7E8bM1Ojy7786Djp-1" value="FK_CONTACT_PATIENT" style="text;html=1;align=center;verticalAlign=middle;resizable=0;points=[];autosize=1;strokeColor=none;fillColor=none;" parent="1" vertex="1">
          <mxGeometry x="-100" y="508" width="160" height="30" as="geometry" />
        </mxCell>
        <mxCell id="zpkq7E8bM1Ojy7786Djp-2" style="edgeStyle=orthogonalEdgeStyle;rounded=0;orthogonalLoop=1;jettySize=auto;html=1;exitX=1;exitY=0.759;exitDx=0;exitDy=0;exitPerimeter=0;" parent="1" source="QU5SUbdfMxHjPgERnhRS-4" edge="1">
          <mxGeometry relative="1" as="geometry">
            <mxPoint x="-110" y="540" as="sourcePoint" />
            <mxPoint x="80" y="540" as="targetPoint" />
            <Array as="points">
              <mxPoint x="-112" y="540" />
            </Array>
          </mxGeometry>
        </mxCell>
        <mxCell id="wjlmJUlJ3HKsd7XINLQR-1" value="Assurance" style="swimlane;fontStyle=1;align=center;verticalAlign=top;childLayout=stackLayout;horizontal=1;startSize=26;horizontalStack=0;resizeParent=1;resizeLast=0;collapsible=1;marginBottom=0;rounded=0;shadow=0;strokeWidth=1;" parent="1" vertex="1">
          <mxGeometry x="-1010" y="332" width="194.29" height="138" as="geometry">
            <mxRectangle x="550" y="140" width="160" height="26" as="alternateBounds" />
          </mxGeometry>
        </mxCell>
        <mxCell id="wjlmJUlJ3HKsd7XINLQR-2" value="id_assurance: int" style="text;align=left;verticalAlign=top;spacingLeft=4;spacingRight=4;overflow=hidden;rotatable=0;points=[[0,0.5],[1,0.5]];portConstraint=eastwest;rounded=0;shadow=0;html=0;fontStyle=4" parent="wjlmJUlJ3HKsd7XINLQR-1" vertex="1">
          <mxGeometry y="26" width="194.29" height="18" as="geometry" />
        </mxCell>
        <mxCell id="wjlmJUlJ3HKsd7XINLQR-3" value="descriptif: TEXT/CLOB" style="text;align=left;verticalAlign=top;spacingLeft=4;spacingRight=4;overflow=hidden;rotatable=0;points=[[0,0.5],[1,0.5]];portConstraint=eastwest;rounded=0;shadow=0;html=0;" parent="wjlmJUlJ3HKsd7XINLQR-1" vertex="1">
          <mxGeometry y="44" width="194.29" height="26" as="geometry" />
        </mxCell>
        <mxCell id="oY7t5Rdmb1ISyH3gKLm8-1" value="id_facture: INT &lt;fk&gt;" style="text;align=left;verticalAlign=top;spacingLeft=4;spacingRight=4;overflow=hidden;rotatable=0;points=[[0,0.5],[1,0.5]];portConstraint=eastwest;rounded=0;shadow=0;html=0;" parent="wjlmJUlJ3HKsd7XINLQR-1" vertex="1">
          <mxGeometry y="70" width="194.29" height="36" as="geometry" />
        </mxCell>
        <mxCell id="wjlmJUlJ3HKsd7XINLQR-9" value="FK_ASSURANCE_FACTURE" style="text;html=1;align=center;verticalAlign=middle;resizable=0;points=[];autosize=1;strokeColor=none;fillColor=none;" parent="1" vertex="1">
          <mxGeometry x="-781" y="346" width="180" height="30" as="geometry" />
        </mxCell>
        <mxCell id="wjlmJUlJ3HKsd7XINLQR-10" style="edgeStyle=orthogonalEdgeStyle;rounded=0;orthogonalLoop=1;jettySize=auto;html=1;entryX=0;entryY=0.5;entryDx=0;entryDy=0;exitX=1;exitY=0.5;exitDx=0;exitDy=0;" parent="1" edge="1">
          <mxGeometry relative="1" as="geometry">
            <mxPoint x="-815.71" y="370.41" as="sourcePoint" />
            <mxPoint x="-540" y="384.0000000000002" as="targetPoint" />
            <Array as="points">
              <mxPoint x="-816" y="384" />
            </Array>
          </mxGeometry>
        </mxCell>
        <mxCell id="uPuDeAvWnkZBqjxd4NfP-152" style="edgeStyle=orthogonalEdgeStyle;rounded=0;orthogonalLoop=1;jettySize=auto;html=1;exitX=0;exitY=0.5;exitDx=0;exitDy=0;entryX=0;entryY=0.5;entryDx=0;entryDy=0;" parent="1" edge="1">
          <mxGeometry relative="1" as="geometry">
            <mxPoint x="480" y="745.9999999999998" as="sourcePoint" />
            <mxPoint x="510.1657399999999" y="430.84400000000005" as="targetPoint" />
            <Array as="points">
              <mxPoint x="429" y="746" />
              <mxPoint x="429" y="431" />
              <mxPoint x="506" y="431" />
            </Array>
          </mxGeometry>
        </mxCell>
        <mxCell id="mzKqz2u3lu9u9uiJZe5G-1" value="" style="endArrow=classic;html=1;rounded=0;exitX=0.004;exitY=0.819;exitDx=0;exitDy=0;exitPerimeter=0;" parent="1" source="uPuDeAvWnkZBqjxd4NfP-90" edge="1">
          <mxGeometry width="50" height="50" relative="1" as="geometry">
            <mxPoint x="-730" y="780" as="sourcePoint" />
            <mxPoint x="80" y="640" as="targetPoint" />
            <Array as="points">
              <mxPoint x="-710" y="800" />
              <mxPoint x="-710" y="722" />
              <mxPoint x="-710" y="640" />
              <mxPoint x="-680" y="640" />
            </Array>
          </mxGeometry>
        </mxCell>
        <mxCell id="p1fQQS-xMqzGaWY1hUp9-2" value="FK_HOSPITALISATION_CHAMBRE" style="text;html=1;align=center;verticalAlign=middle;resizable=0;points=[];autosize=1;strokeColor=none;fillColor=none;rotation=0;" parent="1" vertex="1">
          <mxGeometry x="439.9964806727908" y="575.0033656638713" width="220" height="30" as="geometry" />
        </mxCell>
        <mxCell id="LhujySfEyM85R4URf0hD-3" style="edgeStyle=orthogonalEdgeStyle;rounded=0;orthogonalLoop=1;jettySize=auto;html=1;exitX=1.025;exitY=0.863;exitDx=0;exitDy=0;exitPerimeter=0;" parent="1" edge="1">
          <mxGeometry relative="1" as="geometry">
            <mxPoint x="1530" y="80" as="targetPoint" />
            <mxPoint x="1299" y="80" as="sourcePoint" />
          </mxGeometry>
        </mxCell>
        <mxCell id="7qXbEy4_ou5uuq6s0Rbz-3" value="FK_HOSPITALISATION_INFIRMIER" style="text;html=1;align=center;verticalAlign=middle;resizable=0;points=[];autosize=1;strokeColor=none;fillColor=none;rotation=0;" parent="1" vertex="1">
          <mxGeometry x="669.9971571957592" y="908.9999951594949" width="220" height="30" as="geometry" />
        </mxCell>
        <mxCell id="AstKOoGQgFCBJUyVqaT_-1" style="edgeStyle=orthogonalEdgeStyle;rounded=0;orthogonalLoop=1;jettySize=auto;html=1;exitX=0;exitY=0.5;exitDx=0;exitDy=0;entryX=1;entryY=0.5;entryDx=0;entryDy=0;" parent="1" source="AstKOoGQgFCBJUyVqaT_-3" target="uPuDeAvWnkZBqjxd4NfP-112" edge="1">
          <mxGeometry relative="1" as="geometry">
            <Array as="points">
              <mxPoint x="-1170" y="851" />
            </Array>
          </mxGeometry>
        </mxCell>
        <mxCell id="AstKOoGQgFCBJUyVqaT_-2" value="FK_&lt;div&gt;PRESCRIPTION_MEDICAMENT&lt;/div&gt;" style="text;html=1;align=center;verticalAlign=middle;resizable=0;points=[];autosize=1;strokeColor=none;fillColor=none;" parent="1" vertex="1">
          <mxGeometry x="-1395" y="804" width="200" height="40" as="geometry" />
        </mxCell>
      </root>
    </mxGraphModel>
  </diagram>
</mxfile>
